<svg xmlns="http://www.w3.org/2000/svg" width="48" height="48" viewBox="0 0 48 48" fill="none">
  <g clip-path="url(#clip0_2_221)">
    <path d="M38.319 10.604C40.8506 8.21859 42.2812 4.93069 42.2812 1.40625C42.2812 0.629625 41.6516 0 40.875 0C40.0984 0 39.4688 0.629625 39.4688 1.40625C39.4688 3.75609 38.6507 5.97084 37.1766 7.72444C35.5436 4.00828 31.8281 1.40625 27.5156 1.40625C24.4949 1.40625 21.5044 2.70544 19.4289 5.18203L19.429 5.18194L16.2068 9.02672C11.7973 9.71672 7.962 10.9839 5.08866 12.7042C1.75969 14.6974 0 17.1446 0 19.7812C0 21.2552 0.567844 22.6782 1.65028 23.9889C0.567656 25.308 0 26.7499 0 28.2188C0 29.6927 0.567844 31.1157 1.65028 32.4264C0.567656 33.7455 0 35.1875 0 36.6562C0 39.8802 2.65509 42.8258 7.47609 44.9505C11.938 46.917 17.8064 48 24 48C36.7288 48 48 43.3511 48 36.6562C48 35.8519 48 20.518 48 19.7812C48 16.0735 44.4085 12.6955 38.319 10.604ZM14.8118 15.07L21.5846 6.9885L21.5847 6.98841C23.0575 5.23069 25.2191 4.21875 27.5156 4.21875C31.7804 4.21875 35.25 7.68834 35.25 11.9531C35.25 16.2179 31.7804 19.6875 27.5156 19.6875C27.0617 19.6875 17.4103 19.6875 16.9688 19.6875C14.5869 19.6875 13.284 16.8926 14.8118 15.07ZM24 45.1875C11.5139 45.1875 2.8125 40.6914 2.8125 36.6562C2.8125 35.8841 3.11569 35.1098 3.71269 34.3445C7.95928 37.4798 14.6074 38.8969 19.9227 39.3113C20.4924 41.8136 22.7339 43.6875 25.4062 43.6875C28.1873 43.6875 30.5021 41.6582 30.9511 39.0029C33.4511 38.6576 35.833 38.1212 37.9484 37.4267C38.981 38.6732 40.5399 39.4688 42.2812 39.4688C42.9152 39.4688 43.5352 39.364 44.122 39.165C41.4414 42.3528 33.9142 45.1875 24 45.1875ZM2.8125 28.2188C2.8125 27.4466 3.11569 26.6723 3.71269 25.907C7.93875 29.0272 14.5348 30.4393 19.7812 30.8632V36.4785C9.615 35.6109 2.8125 31.7834 2.8125 28.2188ZM36.7495 34.8575C35.0062 35.4082 33.0692 35.8461 31.0312 36.1498V32.8885C31.0312 31.5715 31.9829 30.4329 33.2945 30.1813L33.3843 30.164C35.0869 29.8332 36.6562 31.1332 36.6562 32.8718C36.6562 33.9137 36.6367 34.2401 36.7495 34.8575ZM45.1875 33.8438C45.1875 35.3683 43.8566 36.6562 42.2812 36.6562C40.7304 36.6562 39.4688 35.3946 39.4688 33.8438V32.8718C39.4688 29.3634 36.2854 26.7359 32.8484 27.403L32.7641 27.4193C30.1304 27.9247 28.2188 30.2248 28.2188 32.8885V37.7648C28.2188 37.7655 28.2188 37.7662 28.2188 37.7667V38.0625C28.2188 39.6133 26.9571 40.875 25.4062 40.875C23.8554 40.875 22.5938 39.6133 22.5938 38.0625V29.5489C22.5938 28.802 22.0099 28.1854 21.2641 28.1447C10.3638 27.55 2.8125 23.5451 2.8125 19.7812C2.8125 18.2103 4.13391 16.5539 6.53344 15.1174C8.33709 14.0375 10.6728 13.133 13.3171 12.4749C13.2336 12.5746 12.7355 13.169 12.6562 13.2636L12.6562 13.2635C9.60019 16.9095 12.2025 22.5 16.9688 22.5H27.5156C32.8192 22.5 37.2203 18.5648 37.9542 13.4611C42.4013 15.1007 45.1875 17.4951 45.1875 19.7812V33.8438Z" fill="#DE862B"/>
    <path d="M21.5 17C22.3284 17 23 16.3284 23 15.5C23 14.6716 22.3284 14 21.5 14C20.6716 14 20 14.6716 20 15.5C20 16.3284 20.6716 17 21.5 17Z" fill="#DE862B"/>
    <path d="M25.5 10C26.3284 10 27 9.32843 27 8.5C27 7.67157 26.3284 7 25.5 7C24.6716 7 24 7.67157 24 8.5C24 9.32843 24.6716 10 25.5 10Z" fill="#DE862B"/>
    <path d="M29.5 17C30.3284 17 31 16.3284 31 15.5C31 14.6716 30.3284 14 29.5 14C28.6716 14 28 14.6716 28 15.5C28 16.3284 28.6716 17 29.5 17Z" fill="#DE862B"/>
  </g>
  <defs>
    <clipPath id="clip0_2_221">
      <rect width="48" height="48" fill="white"/>
    </clipPath>
  </defs>
</svg>