<svg xmlns="http://www.w3.org/2000/svg" width="48" height="48" viewBox="0 0 48 48" fill="none">
  <g clip-path="url(#clip0_2_238)">
    <path d="M47.9954 16.0453C47.9225 13.0613 46.9847 10.2135 45.355 8.02639C43.2413 5.18961 40.6051 3.06495 37.5198 1.71139C34.6933 0.471361 31.5484 -0.099764 28.1735 0.014236C18.6933 0.33383 8.445 6.17933 3.25154 14.2293C0.291942 18.8165 -0.672558 23.6881 0.462004 28.3173C1.52335 32.6472 4.34447 36.5576 8.62069 39.6259C12.8174 42.637 16.3596 44.6746 19.7682 46.038C23.0486 47.3501 26.1239 48 29.0863 48C30.1787 48 31.2558 47.9116 32.322 47.7354C36.5611 47.035 39.9439 44.7913 41.3709 41.7335C42.462 39.3956 42.1987 37.0617 41.944 34.8046C41.7558 33.1359 41.5779 31.5597 41.9797 30.1192C42.3591 28.7591 43.2772 27.5907 44.2493 26.3537C44.7848 25.6722 45.3384 24.9675 45.8273 24.1985C47.2974 21.8859 48.0674 18.9904 47.9954 16.0453ZM43.4536 22.69C43.0402 23.3405 42.5531 23.9601 42.0376 24.6162C40.9378 26.0157 39.8006 27.4629 39.2706 29.3638C38.7218 31.3312 38.9391 33.2572 39.1493 35.1199C39.3699 37.0761 39.5783 38.924 38.8223 40.5442C38.4347 41.3746 36.7876 44.1471 31.8635 44.9607C28.4274 45.5284 24.8125 45.0268 20.8129 43.4268C17.6208 42.1499 14.2678 40.2161 10.2605 37.3409C6.53682 34.6691 4.09322 31.3174 3.19379 27.6479C2.24785 23.7881 3.08504 19.6752 5.61497 15.7537C7.86638 12.264 11.3388 9.05549 15.3926 6.71895C19.564 4.31483 24.0164 2.9682 28.2683 2.82486C32.5869 2.67917 38.6648 3.75495 43.0998 9.70658C45.7476 13.2604 45.8997 18.842 43.4536 22.69Z" fill="#DE862B"/>
    <path d="M25 12C18.9346 12 14 16.9346 14 23C14 29.0654 18.9346 34 25 34C31.0654 34 36 29.0654 36 23C36 16.9346 31.0653 12 25 12ZM25 31.1304C20.5169 31.1304 16.8696 27.4831 16.8696 23C16.8696 18.5169 20.5169 14.8696 25 14.8696C29.4831 14.8696 33.1304 18.5169 33.1304 23C33.1304 27.4831 29.4831 31.1304 25 31.1304Z" fill="#DE862B"/>
    <path d="M24.5 18C21.4673 18 19 20.4673 19 23.5C19 24.3285 19.6716 25 20.5 25C21.3284 25 22 24.3285 22 23.5C22 22.1215 23.1214 21 24.5 21C25.3284 21 26 20.3285 26 19.5C26 18.6715 25.3284 18 24.5 18Z" fill="#DE862B"/>
  </g>
  <defs>
    <clipPath id="clip0_2_238">
      <rect width="48" height="48" fill="white"/>
    </clipPath>
  </defs>
</svg>