<svg xmlns="http://www.w3.org/2000/svg" width="48" height="48" viewBox="0 0 48 48" fill="none">
  <path d="M31.0524 48H17.8323C10.9935 48 5.42988 42.3068 5.42988 35.3091V20.5067C3.85972 18.3065 3 15.6243 3 12.8988C3 5.78644 8.65081 0 15.5965 0H33.4036C40.3492 0 46 5.78634 46 12.8987C46 15.7063 45.0995 18.4471 43.4546 20.673V35.3091C43.4546 42.3068 37.891 48 31.0524 48ZM15.5965 2.8125C10.2176 2.8125 5.84141 7.33725 5.84141 12.8988C5.84141 15.1745 6.60045 17.409 7.97862 19.1907C8.16843 19.4362 8.27129 19.7365 8.27129 20.0456V35.3091C8.27129 40.7561 12.5603 45.1875 17.8323 45.1875H31.0524C36.3242 45.1875 40.6132 40.756 40.6132 35.3091V20.1985C40.6132 19.8809 40.7218 19.5726 40.9214 19.3238C42.364 17.5261 43.1585 15.2443 43.1585 12.8987C43.1586 7.33716 38.7824 2.8125 33.4035 2.8125H15.5965Z" fill="#DE862B"/>
  <path d="M24.5008 42C17.0718 42.0037 10.9977 36.0338 11 28.7328V9.20633C11 6.88696 12.9389 5 15.3222 5C17.7054 5 19.6443 6.88696 19.6443 9.20633V15.3338C19.6443 16.1058 20.2897 16.734 21.083 16.734C21.8763 16.734 22.5217 16.1058 22.5217 15.3338V13.7028C22.5217 11.3808 24.4629 9.4918 26.8487 9.4918C29.2346 9.4918 31.1757 11.3808 31.1757 13.7028V15.3271C31.1757 16.1028 31.8241 16.734 32.6212 16.734C35.5871 16.734 38 19.0821 38 21.9685V28.8619C38 32.3806 36.5845 35.6879 34.0143 38.175C31.4633 40.6432 28.0872 41.9999 24.5008 42ZM15.3222 7.80422C14.5278 7.80422 13.8814 8.43321 13.8814 9.20633V28.7328C13.8797 34.4908 18.657 39.1987 24.5003 39.1958C30.1951 39.3122 35.2385 34.4049 35.1185 28.8619V21.9684C35.1185 20.6283 33.9982 19.5381 32.6211 19.5381C30.2353 19.5381 28.2941 17.649 28.2941 15.327V13.7027C28.2941 12.927 27.6456 12.2959 26.8486 12.2959C26.0516 12.2959 25.4031 12.927 25.4031 13.7027V15.3337C25.4031 17.652 23.4651 19.5381 21.0829 19.5381C18.7008 19.5381 16.7628 17.652 16.7628 15.3337V9.20624C16.7629 8.43311 16.1166 7.80422 15.3222 7.80422Z" fill="#DE862B"/>
  <path d="M24.5 36C20.3645 36 17 32.6355 17 28.5C17 24.3645 20.3645 21 24.5 21C28.6356 21 32 24.3645 32 28.5C32 32.6355 28.6355 36 24.5 36ZM24.5 23.7933C21.9046 23.7933 19.7932 25.9048 19.7932 28.5001C19.7932 31.0954 21.9046 33.2069 24.5 33.2069C27.0954 33.2069 29.2068 31.0954 29.2068 28.5001C29.2068 25.9048 27.0953 23.7933 24.5 23.7933Z" fill="#DE862B"/>
  <path d="M38.4996 12.9995C37.4686 13.0274 36.6945 11.8666 37.1183 10.9191C37.5991 9.69443 39.4014 9.69282 39.8809 10.9192C40.307 11.8656 39.5301 13.0286 38.4996 12.9995Z" fill="#DE862B"/>
  <path d="M32.4996 7.99936C31.469 8.03007 30.6944 6.86557 31.1183 5.9193C31.5991 4.6942 33.4013 4.6929 33.8809 5.9194C34.307 6.86487 33.53 8.03117 32.4996 7.99936Z" fill="#DE862B"/>
</svg>