<svg xmlns="http://www.w3.org/2000/svg" viewBox="0 0 865.31 471.59"><defs><style>.cls-1{fill:#e09035;}.cls-2{fill:#242424;}</style></defs><g id="Layer_2" data-name="Layer 2"><g id="Layer_2-2" data-name="Layer 2"><path class="cls-1" d="M455.38,471.59A235.86,235.86,0,0,1,363.6,18.53,235.86,235.86,0,0,1,547.17,453.06,234.32,234.32,0,0,1,455.38,471.59Zm0-448.69C338,22.9,242.49,118.41,242.49,235.8S338,448.69,455.38,448.69s212.9-95.5,212.9-212.89S572.77,22.9,455.38,22.9Z"/><path class="cls-1" d="M536.61,327.76c-15.31.21-29.87-3.28-43.94-9.1a53.19,53.19,0,0,1-5.25-2.26c-2.82-1.55-5-.85-7.16,1.31a80.52,80.52,0,0,1-6.77,6.16,114.71,114.71,0,0,1-57,24.67,133.92,133.92,0,0,1-29.12.75c-15.94-1.31-30.53-6.42-42.61-17.47a55.56,55.56,0,0,1-17.26-31.57,69.22,69.22,0,0,1-.52-23.9,62.09,62.09,0,0,1,14.74-31.7,123.33,123.33,0,0,1,36.6-28.88c9.31-4.87,18.78-9.35,28.36-13.62.7-.31,1.38-.67,2.09-.94a5.38,5.38,0,0,0,3.66-4.68q.74-5.37,1.53-10.75c1.92-12.73,6-24.82,11-36.6a142.33,142.33,0,0,1,23.74-38.25,77.33,77.33,0,0,1,20.65-17c8.19-4.53,17-6.73,26.44-5.49,16.52,2.18,24.15,15.13,22.68,30.23-1.27,13-7,24.07-14.74,34.24-7,9.15-15.25,17.06-23.87,24.61a263.46,263.46,0,0,1-40,28.52c-.33.19-.65.41-1,.57-2.75,1.27-3.82,3.37-3.71,6.42a73.18,73.18,0,0,0,2.22,15.25c3.76,15.17,11.5,28.19,21.68,39.84a103.31,103.31,0,0,0,18.65,16.84c3.93,2.74,4.37,2.65,7.41-1.17A108.55,108.55,0,0,0,496.49,266a262.7,262.7,0,0,0,11.65-26.12,97.64,97.64,0,0,0,5.46-18.64,21,21,0,0,1,2-6.53c1.93-3.55,5.23-4,7.91-1.06a16.14,16.14,0,0,1,4.13,13.24,86.93,86.93,0,0,1-2.18,11.8,203.71,203.71,0,0,1-15.81,41.65c-2.37,4.57-5.09,9-7.7,13.4s-2.56,4.5,2.44,6.17c4.16,1.38,8.34,2.75,12.6,3.76a93.33,93.33,0,0,0,24.36,2.86,41.09,41.09,0,0,0,13.42-2.58,32.92,32.92,0,0,0,15.43-11.39c6.41-8.69,10.93-18.34,14.5-28.44,1.78-5,3.06-10.23,4.64-15.33a75.23,75.23,0,0,1,2.94-8.65c1.55-3.47,4.58-3.92,7.42-1.37,2.2,2,2.56,4.51,2.31,7.32a179.35,179.35,0,0,1-4.08,24.8A92.27,92.27,0,0,1,577.5,311.3,46.58,46.58,0,0,1,544,327.74C541.57,327.89,539.09,327.76,536.61,327.76ZM401.49,326c8.15-.55,16.32-1.12,24.32-3,12.05-2.87,22.78-8.58,33-15.34,5.6-3.71,5.54-4.25.43-8.49a144,144,0,0,1-29.75-33C421.9,254.3,416.4,241.61,414,227.68c-.2-1.12-.46-2.24-.75-3.34-.73-2.83-1.39-3.26-4-2.3-3.21,1.2-6.38,2.52-9.56,3.8-15.17,6-27.1,16.17-36.27,29.51a50.64,50.64,0,0,0-8.25,40.28C358,309.1,366,318,379,322.53,386.23,325.07,393.85,325.47,401.49,326Zm88.4-219.34a20.15,20.15,0,0,0-8.83,2.06c-6.81,2.94-12.11,7.77-16.87,13.34-12.46,14.56-20.82,31.34-26.65,49.45-1.34,4.15-2.12,8.49-3.08,12.75-.24,1.09-.53,2.45.43,3.25s2.11-.1,3.07-.65c.66-.38,1.29-.82,1.93-1.23a228.3,228.3,0,0,0,42.66-36A89.41,89.41,0,0,0,493.62,135a43.38,43.38,0,0,0,6-15.91,13.17,13.17,0,0,0-.81-7.82,7.28,7.28,0,0,0-6.11-4.52C491.8,106.67,490.84,106.67,489.89,106.62Z"/><path class="cls-2" d="M864.79,86.2a34.87,34.87,0,0,1-4.28,8.07c-4.29,6.31-8.56,12.64-13,18.85a609.39,609.39,0,0,0-47,78.46c-17.25,34-33.69,68.47-50.41,102.76-6.19,12.69-12.46,25.34-18.91,37.89A127.93,127.93,0,0,1,697,374c-8.7,7-18.1,12.75-28.67,16.43-9.64,3.35-19.46,5.13-29.78,3.42-4.7-.78-9.43-1.26-14-2.66a50.56,50.56,0,0,1-13.91-6.58C600.54,377.69,595,368.1,593.8,356a94.76,94.76,0,0,1,0-15.44c.27-4.25,1.74-8.19,3.36-12.08a50.48,50.48,0,0,1,17.39-22.23c9.59-6.85,20.33-8.34,31.64-6.65,7.93,1.18,13.46,6,17.35,12.78s4.73,14,4.94,21.52a15.41,15.41,0,0,1-.78,3.91c-.19.75-.57,1.5-1.43,1.6s-1.29-.64-1.43-1.41c-1.8-9.91-9.25-13-17.79-14.15a43.62,43.62,0,0,0-18.18,1.08c-10,2.95-17.05,9.17-19.7,19.57a22.26,22.26,0,0,0,12.26,25.71A33.15,33.15,0,0,0,638.12,373c9.68-.73,18-4.63,25.52-10.52a81.23,81.23,0,0,0,11.5-11.13c11.12-12.93,20.33-27.19,28.86-41.88,9.5-16.36,17.26-33.59,25.24-50.71A8.48,8.48,0,0,0,730,256a.9.9,0,0,0-1.16-.88c-1.37.3-2.22,1.42-3.21,2.31-6.82,6.11-13.77,12.07-21.08,17.6a120.63,120.63,0,0,1-20.33,12.75A53.75,53.75,0,0,1,672.35,292c-11.73,2.55-19.83-1.76-24.86-11.37a36.83,36.83,0,0,1-3.87-23.86c2-11.3,6.72-21.46,13.08-30.85q10.89-16.11,22.33-31.85c5.38-7.4,11.18-14.5,16.82-21.73,6.8-8.72,13.49-17.54,19.65-26.74,4.89-7.3,9.49-14.77,12.89-22.91,2.75-6.57,4.63-13.32,4.06-20.57A21.34,21.34,0,0,0,731.22,96a12.23,12.23,0,0,0-11.93-8.16,22.29,22.29,0,0,0-7.79,1.68,46.2,46.2,0,0,0-12.92,7.26c-4.22,3.27-8.38,6.64-12.28,10.29a209.19,209.19,0,0,0-22.77,25.64c-8.43,11-14.56,23.25-19.59,36.09a64.84,64.84,0,0,0-3.38,12.7,23.86,23.86,0,0,0-.11,8.55c1.34,6.93,7.34,10.07,13.86,7.27,1.69-.72,3.28-1.67,5.59-2.87a8.82,8.82,0,0,1-4.26,5.23c-9.46,5.49-19.49,7.75-30.15,4.18-9.62-3.23-14.49-10.62-16.69-20.16-1.58-6.88-.91-13.64.71-20.39,3-12.44,8.86-23.49,16-34,7.71-11.3,17.34-20.72,28.05-29.16a110.54,110.54,0,0,1,20-13.12c8.47-4.13,17.3-7.32,26.62-8.41,10.43-1.21,20.93-1.41,31.21,1.7,17.29,5.23,27.26,18.28,27.83,36.29A65.68,65.68,0,0,1,756,139.15c-3.61,11.15-8.88,21.49-14.79,31.54a462,462,0,0,1-25.85,38.46c-7.67,10.46-15.47,20.83-23.07,31.35-3,4.16-5.75,8.54-8.42,12.94a35.36,35.36,0,0,0-2.77,6.25c-.76,2-.95,4.18.68,5.93,1.85,2,4.19,1.56,6.4.8a34.17,34.17,0,0,0,5.75-2.51c3.31-1.89,6.61-3.84,9.73-6A294.44,294.44,0,0,0,743.91,224a23.37,23.37,0,0,0,4.7-7.1c5.21-11.46,10.41-22.93,15.71-34.35,6.59-14.19,13.18-28.38,20.73-42.09a175.21,175.21,0,0,1,41.35-50.7,66.5,66.5,0,0,1,15.88-10.12,26.92,26.92,0,0,1,12.78-2.51,19.74,19.74,0,0,1,6.63,1.63C865.11,80.3,866,82.61,864.79,86.2Z"/><path class="cls-2" d="M369.13,112.67c-1.41,3.54-2.72,7.13-4.34,10.57-6,12.78-12.86,25.14-19.66,37.51-15.54,28.27-30.1,57-43,86.61a266,266,0,0,0-15,43.18c-2.58,10.58-4.42,21.28-4.13,32.25a41.58,41.58,0,0,0,2.84,14.52c7.05,17.7,26.82,19.55,37.51,11.89,1.07-.77,2-1.73,3.45-1.93.65-.09,1.64.76,1.43,1.39a11.41,11.41,0,0,1-1.26,3.14c-7.86,11-17.74,19.72-31.1,22.94-12,2.89-23.08.06-32.57-8.14-8.73-7.55-13.61-17.28-16.11-28.36a57.23,57.23,0,0,1-1.45-13.87c0-15.73,2.95-28.93,6.6-42,5.4-19.35,12.9-37.91,21.24-56.15a649.16,649.16,0,0,1,40.15-74.51,27.1,27.1,0,0,0,1.92-3.5,1.72,1.72,0,0,0-.21-1.55c-.64-.67-1.46-.3-2,.27-1.5,1.72-3,3.44-4.35,5.3-7.55,10.55-15.19,21-22.52,31.74-18.78,27.38-37.36,54.89-56.11,82.29-7.32,10.7-14.85,21.27-22.38,31.83A121.77,121.77,0,0,1,200.3,308a33.25,33.25,0,0,1-13.91,9.76c-7.21,2.52-14.66,2-22.08,1.23a8.42,8.42,0,0,1-2.68-1c-2.42-1.19-3.36-3.16-2.46-5.66a18.55,18.55,0,0,1,2.45-4.5,64.92,64.92,0,0,0,7.47-14.12q26.52-65.52,51.4-131.68c1.07-2.85,2-5.76,2.9-8.67a1.63,1.63,0,0,0-.54-2.05,2,2,0,0,0-2.61.32,41.72,41.72,0,0,0-3.89,4.91c-4.56,7.05-9.1,14.11-13.53,21.24-9.76,15.73-19.54,31.43-29.95,46.74C159.23,244.59,144.7,264,127.75,281.4c-9.33,9.6-19.29,18.48-30.58,25.74-8.72,5.6-17.93,10.11-28.07,12.58a60.7,60.7,0,0,1-28.33.41A47.94,47.94,0,0,1,8.38,295.82,67.59,67.59,0,0,1,.81,272,81.19,81.19,0,0,1,0,260.55c0-17.6,5.88-33.71,16-48.7A104,104,0,0,1,59,175.07c10.3-4.78,21.1-7.62,32.63-7.4,13.05.25,23.17,5.89,30.35,16.53a41.9,41.9,0,0,1,5.72,36.63c-4,13.74-11.78,25.12-22.23,34.75a64.15,64.15,0,0,1-17.6,11.62c-9.61,4.26-19.52,4.75-29.65,2.42a4.46,4.46,0,0,1-1.54-.73,1.31,1.31,0,0,1-.53-.92,1.19,1.19,0,0,1,.51-.9,16,16,0,0,1,2.64-1,30.61,30.61,0,0,0,9.63-4.92,97,97,0,0,0,22.59-23.33,69.78,69.78,0,0,0,6.91-13.14c3.17-7.8,3.82-15.91,3-24.18a25,25,0,0,0-2.34-8.22c-3.46-7.47-9.7-11.2-17.89-10.74a34.08,34.08,0,0,0-13.2,3.4A56.09,56.09,0,0,0,53.07,195.4c-14.71,14.43-24.46,31.6-28.17,52a50.88,50.88,0,0,0,1.9,25.43c3.79,11.42,11.66,18.6,23.22,21.62a47.53,47.53,0,0,0,32.41-2.79c9.87-4.45,18.35-10.87,26.15-18.26A243.11,243.11,0,0,0,138,239.09c9.52-13.14,18.28-26.79,26.88-40.54,13.86-22.17,28.18-44,44.05-64.84a242.94,242.94,0,0,1,24.79-28.45c3.05-2.93,6.23-5.7,10.32-7,7.75-2.52,15.64-3.37,23.67-1.37,4.75,1.18,7,4.09,7.3,9a27,27,0,0,1-1.51,9c-3,10.27-6.72,20.28-10.52,30.27-12.28,32.27-25.56,64.14-39,96-1,2.28-2.14,4.48-2.5,7a1.41,1.41,0,0,0,1,1.76,1.89,1.89,0,0,0,1.54-.36,26.17,26.17,0,0,0,2.78-3.6q19.11-30.24,39.52-59.63c15.56-22.42,31.38-44.64,49-65.5A176.12,176.12,0,0,1,330,105.35a31,31,0,0,1,22.31-8.76l7.44.1a12.61,12.61,0,0,1,6,1.74,8,8,0,0,1,4.38,6.92A17,17,0,0,1,369.13,112.67Z"/></g></g></svg>