<svg xmlns="http://www.w3.org/2000/svg" viewBox="0 0 1000 330.95"><defs><style>.cls-1{fill:#e09035;}.cls-2{fill:#fff;}</style></defs><g id="Layer_2" data-name="Layer 2"><path class="cls-1" d="M500,308.31a115.16,115.16,0,1,1,44.94-9.08A114.58,114.58,0,0,1,500,308.31ZM500,88.6A104.25,104.25,0,1,0,604.25,192.85,104.37,104.37,0,0,0,500,88.6Z"/><path class="cls-1" d="M539.77,237.88a54,54,0,0,1-21.51-4.46,25.45,25.45,0,0,1-2.57-1.1,2.64,2.64,0,0,0-3.51.64,39.36,39.36,0,0,1-3.31,3,56.3,56.3,0,0,1-27.94,12.07,65.38,65.38,0,0,1-14.25.37c-7.81-.64-14.95-3.14-20.87-8.55a27.22,27.22,0,0,1-8.45-15.46,34,34,0,0,1-.26-11.7,30.47,30.47,0,0,1,7.22-15.53A60.66,60.66,0,0,1,462.24,183c4.56-2.38,9.2-4.58,13.89-6.67.34-.15.68-.33,1-.46a2.64,2.64,0,0,0,1.8-2.29c.24-1.75.48-3.51.75-5.26a73.33,73.33,0,0,1,5.4-17.93,69.6,69.6,0,0,1,11.63-18.73,37.89,37.89,0,0,1,10.11-8.34,20.73,20.73,0,0,1,12.94-2.68c8.1,1.06,11.83,7.4,11.11,14.8-.62,6.35-3.42,11.79-7.22,16.77A84.28,84.28,0,0,1,512,164.3a128.6,128.6,0,0,1-19.6,14c-.16.1-.32.2-.48.28a3,3,0,0,0-1.83,3.15,36.13,36.13,0,0,0,1.1,7.46,46.53,46.53,0,0,0,10.61,19.51,50.78,50.78,0,0,0,9.13,8.25c1.93,1.34,2.14,1.29,3.63-.57a53.6,53.6,0,0,0,5.59-8.72,127.06,127.06,0,0,0,5.7-12.79,47.57,47.57,0,0,0,2.68-9.13,10.28,10.28,0,0,1,1-3.2c.94-1.73,2.56-2,3.87-.52a7.93,7.93,0,0,1,2,6.49,42,42,0,0,1-1.07,5.78,99.91,99.91,0,0,1-7.74,20.39c-1.16,2.24-2.49,4.39-3.77,6.56s-1.25,2.21,1.2,3c2,.68,4.08,1.35,6.17,1.84a45.59,45.59,0,0,0,11.92,1.41,20.44,20.44,0,0,0,6.58-1.27,16.11,16.11,0,0,0,7.55-5.58,52.74,52.74,0,0,0,7.1-13.92c.87-2.47,1.5-5,2.27-7.51a36.51,36.51,0,0,1,1.45-4.24c.75-1.7,2.24-1.92,3.63-.67a4,4,0,0,1,1.13,3.59,87.31,87.31,0,0,1-2,12.14,45.27,45.27,0,0,1-10,19.81,22.79,22.79,0,0,1-16.39,8.05C542.2,237.94,541,237.88,539.77,237.88ZM473.61,237a72.48,72.48,0,0,0,11.91-1.48A50.63,50.63,0,0,0,501.68,228c2.74-1.82,2.71-2.08.21-4.16a70.67,70.67,0,0,1-14.57-16.15,50.57,50.57,0,0,1-7.59-18.83c-.09-.55-.22-1.09-.36-1.63-.36-1.39-.68-1.6-1.94-1.13-1.57.59-3.12,1.24-4.68,1.86A38.65,38.65,0,0,0,455,202.42a24.77,24.77,0,0,0-4,19.72c1.35,6.6,5.28,11,11.62,13.18C466.14,236.56,469.87,236.76,473.61,237ZM516.9,129.6a10,10,0,0,0-4.33,1,23.06,23.06,0,0,0-8.26,6.53,69.38,69.38,0,0,0-13.05,24.22c-.65,2-1,4.15-1.51,6.24-.12.54-.26,1.2.21,1.59s1-.05,1.51-.31c.32-.19.63-.41.94-.61a111.57,111.57,0,0,0,20.89-17.64,43.51,43.51,0,0,0,5.42-7.11,21.16,21.16,0,0,0,3-7.79,6.52,6.52,0,0,0-.39-3.83,3.58,3.58,0,0,0-3-2.21C517.83,129.62,517.36,129.62,516.9,129.6Z"/><path class="cls-1" d="M550.12,40.16a9.47,9.47,0,0,1,5,1.36,3.29,3.29,0,0,1,1.71,4c-.49,2.16-1.58,3.25-3.52,3.33a10.13,10.13,0,0,1-6.27-1.91,2.87,2.87,0,0,1-1.24-3.16,12.21,12.21,0,0,1,.45-1.6,2.83,2.83,0,0,1,2.72-2C549.38,40.15,549.75,40.16,550.12,40.16Z"/><path class="cls-2" d="M660.42,121.39a4.73,4.73,0,0,1-1.11.83q-6.51,3.56-13,7.08a8.92,8.92,0,0,1-1.27.56.8.8,0,0,1-1-.28.87.87,0,0,1,.29-1.22,21.68,21.68,0,0,1,1.89-1.21c1.37-.8,2.77-1.54,4.12-2.37s1.52-1.3.68-2.76c-1.48-2.58-3.08-5.11-4.63-7.66a5.63,5.63,0,0,0-.51-.67,1.3,1.3,0,0,0-2-.36c-1.44.86-2.83,1.82-4.24,2.72-.71.45-1.41.91-2.15,1.3a.83.83,0,0,1-1.21-.3.82.82,0,0,1,.22-1,4.79,4.79,0,0,1,.66-.53q6.21-4.31,12.43-8.6a6.44,6.44,0,0,1,1.49-.73.82.82,0,0,1,.94.45.78.78,0,0,1-.09,1c-.56.49-1.17.92-1.77,1.35-1.06.76-2.16,1.48-3.2,2.26a1.3,1.3,0,0,0-.37,1.75c.12.25.26.5.4.74q2.4,3.94,4.82,7.88a1.86,1.86,0,0,0,1.63,1.17,9.09,9.09,0,0,0,1.14-.45c1.24-.66,2.45-1.36,3.68-2a5.25,5.25,0,0,1,1.29-.51.84.84,0,0,1,.91.5A.87.87,0,0,1,660.42,121.39Z"/><path class="cls-2" d="M643.56,100.19a3,3,0,0,1-.68.87.69.69,0,0,1-1,0,.89.89,0,0,1-.29-.72,8.57,8.57,0,0,1,.6-1.55,4.56,4.56,0,0,0,0-4.06A14.25,14.25,0,0,0,637,88.67a4.52,4.52,0,0,0-5.25,0,9.43,9.43,0,0,0-1.35,1c-1.46,1.31-2.91,2.62-4.33,4a10.72,10.72,0,0,0-1.43,1.71,4.42,4.42,0,0,0-.39,4.53,14.17,14.17,0,0,0,4.79,5.73,5.22,5.22,0,0,0,4.29.64c1-.2,1.58.1,1.55.61-.05.72-.63.84-1.15,1a3,3,0,0,1-2.18.09,7.42,7.42,0,0,1-1.07-.34A15.72,15.72,0,0,1,622.92,99a4.61,4.61,0,0,1-.21-1.4,6,6,0,0,1,1.71-4.83c1.72-1.71,3.47-3.4,5.29-5a5.27,5.27,0,0,1,6.49-.7,16.27,16.27,0,0,1,7.55,9A4.87,4.87,0,0,1,643.56,100.19Z"/><path class="cls-2" d="M627.08,77.86a5,5,0,0,1-.77,1.15Q621,84.59,615.68,90.14a4.2,4.2,0,0,1-.63.56,1,1,0,0,1-1.28,0,2.24,2.24,0,0,1-.87-2.47c.4-2.1.78-4.22,1.09-6.34.48-3.23.89-6.46,1.31-9.7a5.88,5.88,0,0,0,0-1.39.92.92,0,0,0-.39-.66.81.81,0,0,0-.75.12,19.59,19.59,0,0,0-1.49,1.66c-2.23,2.75-4.44,5.53-6.67,8.28a4,4,0,0,1-1.61,1.51.61.61,0,0,1-.51-.09.55.55,0,0,1-.19-.47,5.31,5.31,0,0,1,.66-1.22q4.54-5.85,9.15-11.67a5.86,5.86,0,0,1,.75-.83,1.39,1.39,0,0,1,2.29.49c.38.8.26,1.64.27,3.12-.4,3-.87,6.57-1.39,10.17-.19,1.39-.49,2.76-.71,4.14-.1.64-.14,1.29-.18,1.94a.57.57,0,0,0,.42.64,1,1,0,0,0,.75-.2c.62-.56,1.22-1.16,1.79-1.77,2.36-2.52,4.7-5.06,7.06-7.57A3.5,3.5,0,0,1,626.32,77a.75.75,0,0,1,.52.11A.57.57,0,0,1,627.08,77.86Z"/><path class="cls-2" d="M606.94,61.16a3.85,3.85,0,0,1-.6,1.24q-3.14,4.47-6.3,8.91a10.59,10.59,0,0,1-1.31,1.45,5.17,5.17,0,0,1-3.85,1.45,10.3,10.3,0,0,1-8-4.92,5.67,5.67,0,0,1-.29-4.88,9.15,9.15,0,0,1,.82-1.77c1.6-2.84,3.23-5.67,4.86-8.51q.35-.6.75-1.17c.29-.4.68-.7,1.19-.46s.5.74.28,1.19c-.32.67-.68,1.33-1.06,2-1.41,2.41-2.86,4.81-4.26,7.23a15.56,15.56,0,0,0-1.33,2.76,4.46,4.46,0,0,0,1.35,5.08,10.66,10.66,0,0,0,3.6,2.09,4.21,4.21,0,0,0,4.42-.92,13.91,13.91,0,0,0,2-2.33c1.82-2.59,3.6-5.22,5.4-7.83.37-.53.67-1.16,1.31-1.4a.91.91,0,0,1,.76.1A.84.84,0,0,1,606.94,61.16Z"/><path class="cls-2" d="M576.37,64c-.34.36-.7.12-1,0-2.89-1.3-5.78-2.6-8.66-3.94-1.34-.62-1.56-1.06-1-2.42,1.94-4.85,3.93-9.68,5.92-14.51a2.62,2.62,0,0,1,.6-.92.87.87,0,0,1,.75-.14.85.85,0,0,1,.46.61,4.33,4.33,0,0,1-.63,2.12c-1.48,3.53-3,7.05-4.47,10.57-.25.6-.53,1.2-.74,1.81-.54,1.56-.4,2,1,2.69s2.72,1.24,4.07,1.88c1,.47,2,1,3,1.49C576,63.41,576.36,63.57,576.37,64Z"/><path class="cls-2" d="M538.61,32c0,.08-.23.31-.34.3-.93-.08-1.85-.19-2.78-.32-.46-.06-.9-.25-1.36-.29-3.21-.29-3.87-.85-4.34,3.11-.42,3.51-1,7-1.57,10.51-.15.92-.33,1.84-.51,2.75-.07.37-.22.8-.67.77s-.64-.6-.65-1.06a10.71,10.71,0,0,1,.12-1.39c.54-4.07,1-8.15,1.66-12.2.43-2.67.2-3.55-3.18-3.75-1.29-.07-2.58-.33-3.87-.52-.27,0-.56-.13-.47-.53a1.74,1.74,0,0,1,1.35-.2c5.37.6,10.74,1.26,16,2.31a.52.52,0,0,1,.25.11C538.43,31.67,538.59,31.8,538.61,32Z"/><path class="cls-2" d="M510.9,46.2a10.21,10.21,0,0,1-6.18,1.57,13.47,13.47,0,0,1-6.22-1.25,5.11,5.11,0,0,1-1-.54c-.31-.21-.67-.49-.51-.89s.61-.3,1-.13c.5.25,1,.56,1.48.79a13.28,13.28,0,0,0,6,1.2,8.05,8.05,0,0,0,4.24-1.26,3.3,3.3,0,0,0-.14-5.78A10.39,10.39,0,0,0,507,38.85c-1.71-.47-3.45-.81-5.17-1.25a11.24,11.24,0,0,1-3.39-1.28,3.8,3.8,0,0,1-.29-6.38,5.81,5.81,0,0,1,2.51-1.21,16,16,0,0,1,8.83.47A5.35,5.35,0,0,1,512,30.84a.54.54,0,0,1,0,.51.5.5,0,0,1-.47.17c-.67-.32-1.32-.69-2-1.05-2.49-1.4-5.18-1.41-7.9-1a5.24,5.24,0,0,0-1.81.72,3,3,0,0,0,0,5.42,8.41,8.41,0,0,0,2.07.81c1.53.42,3.08.75,4.62,1.14a20.69,20.69,0,0,1,4,1.39C513.43,40.35,513.27,44.68,510.9,46.2Z"/><path class="cls-2" d="M490.29,47.14a12,12,0,0,0-.57-1.27c-2.46-4.71-5.21-9.25-8-13.74a10,10,0,0,0-.63-.92c-1.08-1.33-2.26-1.12-2.92.52a12.84,12.84,0,0,0-.52,1.59q-1.68,6.49-3.35,13c-.23.9-.38,1.82-.55,2.66a1.79,1.79,0,0,0,0,.35c0,.29.12.56.42.64a.51.51,0,0,0,.66-.34c.38-1.35.7-2.71,1.07-4A2,2,0,0,1,477.26,44,50.14,50.14,0,0,1,485,42.81a1.93,1.93,0,0,1,1.87,1c.4.63.76,1.28,1.15,1.92s.75,1.28,1.17,1.89a.65.65,0,0,0,.95.27A.6.6,0,0,0,490.29,47.14Zm-6.45-5.25c-1.65.29-3.3.51-4.65.71H478c-.94,0-1.35-.48-1.16-1.46a56.78,56.78,0,0,1,2.09-7.8c.32-.91,1.11-1,1.68-.18a53,53,0,0,1,4.14,6.94C485.29,41.09,484.94,41.7,483.84,41.89Z"/><path class="cls-2" d="M462.61,44.23c-.06.63-.46.67-.8.76l-5.65,1.63c-.72.21-1.44.41-2.14.67-1.36.51-1.64,1-1.27,2.32s.88,2.66,1.28,4a4.84,4.84,0,0,1,.15,1.37.52.52,0,0,1-.34.37.56.56,0,0,1-.5-.08,4.47,4.47,0,0,1-.74-1.16q-2.5-7.28-5-14.58c-.45-1.36-.17-2,1.08-2.42a125,125,0,0,1,12.92-3.64,1.3,1.3,0,0,1,.55,0c.14,0,.36.2.35.3a.56.56,0,0,1-.3.4c-.8.26-1.6.48-2.41.7-2.34.64-4.69,1.26-7,1.91a18.08,18.08,0,0,0-2.37.85c-.92.39-1.2.86-1,1.74a38.32,38.32,0,0,0,2.1,6.37,1.23,1.23,0,0,0,1.37.76,18,18,0,0,0,1.9-.44c2-.55,4-1.12,5.93-1.66A3.29,3.29,0,0,1,462.61,44.23Z"/><path class="cls-2" d="M445.74,58.52a2.1,2.1,0,0,1-1.07.1c-.89-.27-1.74-.64-2.61-1-2.88-1.07-5.77-2.13-8.64-3.22a2.9,2.9,0,0,0-2.91.35,1.13,1.13,0,0,0-.51,1.44c.62,1.46,1.31,2.88,2,4.33.41.93.82,1.86,1.19,2.81a.58.58,0,0,1-.33.7.61.61,0,0,1-.76-.16,7.57,7.57,0,0,1-.76-1.17q-3.33-6.45-6.64-12.92a3.87,3.87,0,0,1-.61-1.83c0-.29.19-.52.63-.62.13,0,.49,0,.62.23a16.37,16.37,0,0,1,1.18,1.87c.62,1.15,1.15,2.34,1.8,3.47a1.52,1.52,0,0,0,2.37.52,5.09,5.09,0,0,0,1.69-2.18c1.41-2.63,2.81-5.26,4.23-7.88a5.62,5.62,0,0,1,1.44-2,.54.54,0,0,1,.51,0,.49.49,0,0,1,.13.47c-.26.6-.55,1.18-.86,1.75-1.21,2.21-2.44,4.4-3.64,6.61a8.63,8.63,0,0,0-.64,1.54,1.07,1.07,0,0,0,.62,1.39c.76.35,1.54.66,2.32,1,2.85,1.13,5.71,2.26,8.56,3.41a3.37,3.37,0,0,1,.9.6S445.83,58.5,445.74,58.52Z"/><path class="cls-2" d="M425.66,67.16A9.29,9.29,0,0,0,424.44,66c-4.39-3.31-8.92-6.41-13.54-9.38-.77-.49-1.58-1.18-2.54-.47s-.52,1.51-.42,3c.66,5.18,1.62,11,2.89,16.69a1.74,1.74,0,0,0,.35.74c.09.1.33.1.5.11a.35.35,0,0,0,.22-.15,1.7,1.7,0,0,0,.18-1.34c-.21-1.19-.45-2.37-.68-3.56a1.94,1.94,0,0,1,.85-2.19c2.1-1.38,4.21-2.73,6.34-4.07a2.14,2.14,0,0,1,2.6.2c.74.56,1.48,1.12,2.25,1.65a8,8,0,0,0,1.43.86.91.91,0,0,0,.74-.19A.5.5,0,0,0,425.66,67.16Zm-8.09-2.34q-2.67,1.75-5.41,3.39a1,1,0,0,1-1.52-.67c-.52-2.54-1-5.09-1.36-7.2.05-.83.06-1.2.1-1.57a.75.75,0,0,1,1.05-.55,2.61,2.61,0,0,1,.51.22c2.22,1.51,4.46,3,6.64,4.56A1,1,0,0,1,417.57,64.82Z"/><path class="cls-2" d="M405.53,81.32c0,.17-.06.39-.18.5-.47.45-1,.86-1.47,1.29l-7,6.07c-.42.37-.81.78-1.26,1.12-.85.65-1.36.62-2.23-.13a13.19,13.19,0,0,1-1-1Q387.5,84,382.57,78.85c-1.21-1.28-1.24-1.64,0-2.75,3.36-3.11,6.76-6.17,10.37-9a7.52,7.52,0,0,1,.95-.58c.06,0,.25,0,.26,0s.15.4.08.47q-.69.69-1.44,1.32c-2.4,2.07-4.84,4.1-7.22,6.2s-2.26,2.27-.26,4.46c.63.69,1.28,1.36,2,2a1.32,1.32,0,0,0,2,.12c.67-.5,1.3-1.07,1.93-1.61,1.7-1.46,3.39-2.93,5.1-4.39a10.14,10.14,0,0,1,1.12-.83c.13-.08.34,0,.51,0,0,.16.07.4,0,.48-.46.46-.94.9-1.43,1.33-1.69,1.46-3.4,2.91-5.09,4.4A18,18,0,0,0,389.82,82a1.15,1.15,0,0,0-.09,1.54,35.47,35.47,0,0,0,4.75,5.12,1.14,1.14,0,0,0,1.55,0c.59-.46,1.13-1,1.7-1.45,2.36-2,4.72-4,7.08-5.93C405,81.12,405.31,81,405.53,81.32Z"/><path class="cls-2" d="M387.13,96.3c-.65,0-1.3,0-2,0-1.12,0-2.24,0-3.36,0-1.53-.09-1.82-.6-1.23-2a20.24,20.24,0,0,0,1-2.3c.95-3.12-1.89-6.85-5.22-6.84a4.53,4.53,0,0,0-2.08.51A10.65,10.65,0,0,0,371,88.18q-3.37,3.93-6.63,8c-.95,1.18-.86,1.63.33,2.55q6.18,4.82,12.42,9.57a2.9,2.9,0,0,0,1,.54.85.85,0,0,0,.73-.23.9.9,0,0,0,.08-.77c-.28-.73-1-1.12-1.52-1.6-.93-.78-1.89-1.52-2.79-2.34a1.16,1.16,0,0,1-.18-1.75c.7-1,1.5-1.9,2.23-2.87A3.83,3.83,0,0,1,380,97.66c2.33,0,4.66,0,7,0,.54,0,1.16,0,1.42-.62C388.55,96.64,388,96.34,387.13,96.3Zm-7.67-2.08q-2.85,3.63-5.81,7.17a1.27,1.27,0,0,1-2,.21c-1.86-1.41-3.68-2.86-5.48-4.35a1.12,1.12,0,0,1-.18-1.74,47.55,47.55,0,0,1,6.58-7.59,7.78,7.78,0,0,1,1.67-1,3.35,3.35,0,0,1,1.07-.3c2.18-.2,5.25,2.81,5.11,5.17A4.67,4.67,0,0,1,379.46,94.22Z"/><path class="cls-2" d="M369.39,112.78a3.8,3.8,0,0,0-4.46,0c-.48.3-.92.64-1.4.92s-.93-.06-.91-.63c0-.28.06-.55.11-1a2.69,2.69,0,0,0,0-.43A3.83,3.83,0,0,0,357,108.3a8.55,8.55,0,0,0-2.71,2.4,70.06,70.06,0,0,0-5.53,9.08c-.6,1.12-.42,1.67.71,2.3,4.5,2.47,9,4.94,13.54,7.35,1.49.8,1.94.66,2.76-.71,1.5-2.47,2.95-5,4.38-7.49a11.41,11.41,0,0,0,1.4-3.94A4.37,4.37,0,0,0,369.39,112.78Zm-14.21,10q-2.12-1.08-4.13-2.33a1.26,1.26,0,0,1-.56-1.9,23.51,23.51,0,0,1,1.19-2.21c.82-1.35,1.66-2.7,2.52-4a7.2,7.2,0,0,1,1.91-2,3.81,3.81,0,0,1,5.73,2.25,7.14,7.14,0,0,1,.09.94,12.59,12.59,0,0,1-.55,1.76,55.46,55.46,0,0,1-4.05,7C356.74,123.14,356.2,123.26,355.18,122.74Zm14.51-2.42c-1.23,2.19-2.49,4.36-3.8,6.5-.67,1.09-1.25,1.26-2.35.69q-2.46-1.31-4.85-2.76c-.92-.57-1-1.11-.45-2.14,1.25-2.17,2.56-4.31,3.9-6.44a6.63,6.63,0,0,1,1.3-1.45,4.22,4.22,0,0,1,6.69,1.58,5.16,5.16,0,0,1,.27,1A5.34,5.34,0,0,1,369.69,120.32Z"/><path class="cls-2" d="M870.1,208.86a1.6,1.6,0,0,0-.86-1.35c-.67-.25-1,.31-1.36.74-.69.88-1.35,1.79-2,2.67-2.41,3.1-4.78,6.23-7.24,9.29a76.83,76.83,0,0,1-8.34,8.68,35.29,35.29,0,0,1-8,5.56,17.12,17.12,0,0,1-8.07,2.05c-3.24-.09-5-2.09-4.64-5.29a29,29,0,0,1,.68-3.58,147.59,147.59,0,0,1,5.95-18.08,11.87,11.87,0,0,1,.89-1.74,1.27,1.27,0,0,1,1.45-.6c.45.11.9.25,1.34.4a10.18,10.18,0,0,0,6.06.09,18.24,18.24,0,0,0,5.58-2.55,38.58,38.58,0,0,0,14.19-17.65,17.13,17.13,0,0,0,.91-3.22,10.85,10.85,0,0,0,.23-2.78,7.22,7.22,0,0,0-4-6.31,11.69,11.69,0,0,0-6.51-1.32,34.73,34.73,0,0,0-10.55,2.64,66.45,66.45,0,0,0-7,3.51,93,93,0,0,0-13.39,9.67c-.74.64-1.34,1.63-2.55,1.48-.77-1.24.25-2.11.73-3,3.72-6.91,7.63-13.71,11.79-20.37q2.3-3.69,4.5-7.43a32.92,32.92,0,0,0,2.79-5.8,31,31,0,0,0,1.16-4.32,4.41,4.41,0,0,0-2.34-5,16.61,16.61,0,0,0-2.55-1.13,5.58,5.58,0,0,0-6.4,1.45,47,47,0,0,0-4.06,4.63,148.08,148.08,0,0,0-9.83,15c-7.84,13.28-15.17,26.84-22.45,40.42a31.67,31.67,0,0,1-2.46,4.07c-1.93,2.53-3.81,5.09-5.75,7.6a98,98,0,0,1-9.9,11.06,37.49,37.49,0,0,1-6.88,5.27,15.93,15.93,0,0,1-6,2.15,5.83,5.83,0,0,1-6.85-6.22,36.88,36.88,0,0,1,1.75-9,4.06,4.06,0,0,1,1.91-2.32,51.82,51.82,0,0,0,6.58-4.75,104.61,104.61,0,0,0,11.17-11,243,243,0,0,0,23.67-32.28,185.27,185.27,0,0,0,10.56-18.8,41.18,41.18,0,0,0,1.85-4.39c.71-2.1.29-3.29-1.5-4.62a11.7,11.7,0,0,0-6.24-2.26,20.89,20.89,0,0,0-10.8,2.43,45.44,45.44,0,0,0-8.64,5.69A93.19,93.19,0,0,0,775,162a183.49,183.49,0,0,0-26.56,44.32A38.75,38.75,0,0,1,741,217.36a13.62,13.62,0,0,1-5,3.51,7.18,7.18,0,0,1-4.39.35,1.1,1.1,0,0,1-.83-1.51c.36-.86.78-1.7,1.21-2.52a78.78,78.78,0,0,0,7.36-19.32,48.26,48.26,0,0,0,1.41-11.66,13.64,13.64,0,0,0-1.25-5.7,7.45,7.45,0,0,0-6.51-4.62,38.92,38.92,0,0,1-7.71-1.35,20.57,20.57,0,0,0-10.51.1,35.62,35.62,0,0,0-15.33,8.41,65.92,65.92,0,0,0-20.31,33.53,33,33,0,0,0-.83,14.15c.9,5,3.12,9.21,7.52,12a20.6,20.6,0,0,0,12.64,2.85,27.49,27.49,0,0,0,13.07-4.62,43.82,43.82,0,0,0,8.4-6.95,6.06,6.06,0,0,1,4.9-2.22,17,17,0,0,0,6-1.18,30,30,0,0,0,8.57-4.69c.66-.51,1.35-1,2-1.45a.63.63,0,0,1,.85.45c0,.84-.07,1.68-.08,2.52,0,1.77-.25,3.55.39,5.27a18.45,18.45,0,0,0,12,11.62,7.06,7.06,0,0,0,1.65.3,19.8,19.8,0,0,0,8.56-1,36.72,36.72,0,0,0,5.33-2.45,52.37,52.37,0,0,0,8.67-6.16c.92-.8,1.81-1.62,2.74-2.4.49-.4.93-1.17,1.63-.86s.34,1.15.24,1.75a6.62,6.62,0,0,0-.09,2.22c.61,3.82,4.81,8.37,8.55,9.28a2,2,0,0,0,2.4-1,26.13,26.13,0,0,0,1.36-3.06,80.06,80.06,0,0,1,6.27-12.82,143.71,143.71,0,0,1,12.41-17.29c.78-.93,1.62-1.81,2.46-2.69a5.37,5.37,0,0,1,1.05-.91,1,1,0,0,1,.77-.11.72.72,0,0,1,.26,1c-.27.7-.58,1.37-.89,2.06a60.81,60.81,0,0,0-3.1,8.4A38.54,38.54,0,0,0,813.27,230c0,.22,0,1.06,0,1.9A14.36,14.36,0,0,0,828.9,245.6a44.36,44.36,0,0,0,5.24-.86,36.47,36.47,0,0,0,14.32-6.81,77.23,77.23,0,0,0,20.9-24.22l.26-.49A5.86,5.86,0,0,0,870.1,208.86Zm-36.18-17.15a6.93,6.93,0,0,1,1.16-1.2,104.72,104.72,0,0,1,17.17-10.87,5.78,5.78,0,0,1,1.59-.5,1.24,1.24,0,0,1,1.43,1.54,5.08,5.08,0,0,1-.57,1.55,14,14,0,0,1-1.44,2.05,43.53,43.53,0,0,1-11.1,9.22,9.19,9.19,0,0,1-4.41,1.5,5.5,5.5,0,0,1-3.63-1.3A1.37,1.37,0,0,1,833.92,191.71ZM768.44,201a238.59,238.59,0,0,1,12.79-20.74,268.91,268.91,0,0,1,18.13-23.86c1.15-1.34,2.39-2.61,3.63-3.89a7.86,7.86,0,0,1,1.32-1,.75.75,0,0,1,1,0,1.14,1.14,0,0,1,.25.76,3,3,0,0,1-.26,1.08,20.64,20.64,0,0,1-1,2c-9.09,15.73-19.23,30.7-31.51,44.15a31.38,31.38,0,0,1-4.29,4,2.6,2.6,0,0,1-.74.26c-.13-.19-.31-.34-.3-.48A5.22,5.22,0,0,1,768.44,201Zm-43.67,11.67a6.52,6.52,0,0,1-.43.72c-.75,1.13-1.18,1.25-2.3.6-.81-.47-1.56-1-2.4-1.45a9.57,9.57,0,0,0-7.59-.74,8.5,8.5,0,0,0-5.85,7.47,9.34,9.34,0,0,0,3,8.09c.41.39.84.75,1.23,1.15.67.7.62,1.29-.21,1.85a11.59,11.59,0,0,1-6.82,2.21,5.46,5.46,0,0,1-5.24-3.53,12.75,12.75,0,0,1-.91-6,37.66,37.66,0,0,1,2.06-9.85,61.37,61.37,0,0,1,15.23-23.89,29.76,29.76,0,0,1,5.54-4.27,15.9,15.9,0,0,1,4.39-1.81c3.78-.92,6.43.71,7.3,4.52a28.21,28.21,0,0,1,.37,3.05,23.36,23.36,0,0,1-.78,5A69.22,69.22,0,0,1,724.77,212.67Z"/><path class="cls-2" d="M706.08,144.57a17,17,0,0,1-2.1,4c-2.1,3.09-4.19,6.19-6.36,9.23a298.58,298.58,0,0,0-23,38.42c-8.45,16.66-16.5,33.52-24.68,50.32-3,6.21-6.1,12.4-9.26,18.55a62.77,62.77,0,0,1-16.75,20.45,47.48,47.48,0,0,1-14,8,29.1,29.1,0,0,1-14.59,1.68,51.55,51.55,0,0,1-6.86-1.31,24.72,24.72,0,0,1-6.81-3.22,18.43,18.43,0,0,1-8.23-14,46.54,46.54,0,0,1,0-7.56A18.73,18.73,0,0,1,575,263.2a24.72,24.72,0,0,1,8.52-10.89c4.69-3.35,10-4.08,15.49-3.25,3.88.57,6.59,2.94,8.5,6.26s2.31,6.87,2.41,10.53a7.12,7.12,0,0,1-.38,1.91c-.09.37-.28.74-.7.79s-.63-.31-.7-.69c-.88-4.85-4.53-6.36-8.71-6.93a21.41,21.41,0,0,0-8.9.53c-4.91,1.45-8.35,4.49-9.65,9.58a10.9,10.9,0,0,0,6,12.59,16.33,16.33,0,0,0,8.2,1.35,22.86,22.86,0,0,0,12.5-5.15,40.28,40.28,0,0,0,5.63-5.45,135.83,135.83,0,0,0,14.13-20.51c4.65-8,8.45-16.45,12.36-24.83a4.08,4.08,0,0,0,.34-1.33.44.44,0,0,0-.56-.43,3.69,3.69,0,0,0-1.57,1.13c-3.35,3-6.75,5.91-10.33,8.62a58.92,58.92,0,0,1-10,6.24,26,26,0,0,1-5.79,2.07c-5.74,1.26-9.71-.86-12.18-5.56a18.05,18.05,0,0,1-1.89-11.69,38.71,38.71,0,0,1,6.4-15.1q5.34-7.89,10.94-15.6c2.64-3.62,5.48-7.1,8.23-10.64,3.34-4.27,6.61-8.59,9.63-13.09a66.52,66.52,0,0,0,6.31-11.22,21.43,21.43,0,0,0,2-10.07,10.2,10.2,0,0,0-.61-3,6,6,0,0,0-5.84-4,11,11,0,0,0-3.81.83,22.8,22.8,0,0,0-6.33,3.55c-2.06,1.6-4.1,3.26-6,5a101.54,101.54,0,0,0-11.15,12.56A71,71,0,0,0,597.94,185a31.9,31.9,0,0,0-1.66,6.22,11.52,11.52,0,0,0,0,4.18A4.63,4.63,0,0,0,603,199c.83-.35,1.61-.82,2.74-1.4a4.35,4.35,0,0,1-2.08,2.56c-4.64,2.69-9.55,3.8-14.77,2-4.71-1.57-7.09-5.2-8.17-9.87a21.32,21.32,0,0,1,.35-10,50.3,50.3,0,0,1,7.84-16.63,64.91,64.91,0,0,1,13.74-14.29,54.39,54.39,0,0,1,9.82-6.42,40.77,40.77,0,0,1,13-4.12c5.11-.59,10.25-.68,15.28.84,8.47,2.56,13.35,9,13.63,17.77a32.18,32.18,0,0,1-1.59,11,78.28,78.28,0,0,1-7.24,15.45c-3.85,6.53-8.19,12.73-12.66,18.83-3.76,5.12-7.58,10.2-11.3,15.35-1.47,2-2.81,4.18-4.12,6.34a17.16,17.16,0,0,0-1.36,3.06,2.63,2.63,0,0,0,.34,2.9c.9,1,2,.77,3.13.39a15.64,15.64,0,0,0,2.81-1.23c1.63-.92,3.24-1.87,4.77-2.94a143.75,143.75,0,0,0,19.69-16.59,11.52,11.52,0,0,0,2.3-3.48q3.82-8.41,7.69-16.82c3.23-6.95,6.46-13.9,10.15-20.61a85.8,85.8,0,0,1,20.25-24.82,32.23,32.23,0,0,1,7.78-5,13.22,13.22,0,0,1,6.26-1.23,9.47,9.47,0,0,1,3.24.8C706.24,141.68,706.68,142.81,706.08,144.57Z"/><path class="cls-2" d="M430.64,220.23c-.06-.84,0-1.83-.9-2.22s-1.46.54-2,1.15-.91,1.18-1.37,1.77c-1.74,2.2-3.44,4.42-5.22,6.59a67.64,67.64,0,0,1-15.27,13.92,20.65,20.65,0,0,1-12.75,3.47,6.79,6.79,0,0,1-6.37-4.66,14.44,14.44,0,0,1-.92-4.37A26.38,26.38,0,0,1,388,225a3.3,3.3,0,0,1,3.38-2.33,44.94,44.94,0,0,0,7.78-.83,40.1,40.1,0,0,0,25.36-17.11,20.34,20.34,0,0,0,3-6.58c.9-3.59.68-7.06-1.51-10.19-1.8-2.56-4.18-4-7.41-3.58a20.66,20.66,0,0,0-2.21.33,38.23,38.23,0,0,1-6.93.91,23.19,23.19,0,0,0-13.71,5c-7.27,5.69-13.56,12.29-18,20.46-1,1.8-1.9,3.64-2.87,5.45A25.79,25.79,0,0,1,373,219.7c-3.3,4.53-6.66,9-10.35,13.24a62.47,62.47,0,0,1-9.06,8.75A24.07,24.07,0,0,1,348.1,245a12,12,0,0,1-4.33,1.05c-3.79.07-6.17-2.23-6.2-6a33,33,0,0,1,1.42-8.53,5.06,5.06,0,0,1,2.42-3.26,65.76,65.76,0,0,0,11.93-9.7,176.14,176.14,0,0,0,17.64-21,234.13,234.13,0,0,0,21.5-35.08c.69-1.42,1.35-2.87,1.93-4.35,1.17-3,.7-4.4-2-6.15a8,8,0,0,0-1.49-.76,13.26,13.26,0,0,0-7.42-.79,26.32,26.32,0,0,0-7.66,2.62,45.8,45.8,0,0,0-6.81,4.41A85.3,85.3,0,0,0,357,169.05a155.77,155.77,0,0,0-14.51,19.57,176.07,176.07,0,0,0-17.53,35,66.28,66.28,0,0,0-3.5,14.1,12,12,0,0,0,1.16,7.07,18.55,18.55,0,0,0,10.31,9.4,11.4,11.4,0,0,0,5.48.91,25.6,25.6,0,0,0,8.31-2.35,58.45,58.45,0,0,0,5.13-2.87c5.51-3.46,10.11-8,14.47-12.74.63-.69,1.25-1.39,1.89-2.07a1,1,0,0,1,1-.4.87.87,0,0,1,.61.84c.09.74.09,1.5.17,2.24a22.41,22.41,0,0,0,5.49,12.93c3.11,3.42,6.88,5.39,11.63,5.12a25.7,25.7,0,0,0,4.45-.37,34.82,34.82,0,0,0,11.44-4.39,96.14,96.14,0,0,0,8.46-5.47,72.15,72.15,0,0,0,16.53-18.14,38.3,38.3,0,0,0,2.13-3.94A6.23,6.23,0,0,0,430.64,220.23Zm-37.93-5.14a13.71,13.71,0,0,1,1.17-2.21c4-5.73,8.11-11.38,13.26-16.18a26.48,26.48,0,0,1,5.32-4,6.44,6.44,0,0,1,3.19-.91,2.7,2.7,0,0,1,2.84,2.89,10.17,10.17,0,0,1-.87,3.39,21.45,21.45,0,0,1-4.26,6.18,45.36,45.36,0,0,1-9.39,7.45,73.51,73.51,0,0,1-7.74,3.87,6.42,6.42,0,0,1-2.69.69A.83.83,0,0,1,392.71,215.09Zm-46-1.57a21.24,21.24,0,0,1,1-2.3c2.8-5.28,5.94-10.37,9.2-15.37a282,282,0,0,1,21-28.37c1.27-1.49,2.63-2.91,4-4.33a10.54,10.54,0,0,1,1.47-1.28,1,1,0,0,1,1.28-.06.85.85,0,0,1,.19,1,31.75,31.75,0,0,1-1.53,3.29c-1.83,3.15-3.66,6.3-5.62,9.37a284.38,284.38,0,0,1-17.76,25.16,115.07,115.07,0,0,1-10.26,11.47c-.67.64-1.41,1.23-2.13,1.81-.12.09-.36,0-.54.05C346.86,213.83,346.67,213.63,346.71,213.52Z"/><path class="cls-2" d="M322.76,192.11a10.6,10.6,0,0,0-8.91-7.55,14.12,14.12,0,0,0-5,.11,25.57,25.57,0,0,0-7.35,2.65c-2,1.09-3.83,2.32-5.75,3.48a11.73,11.73,0,0,1-1.73.88.44.44,0,0,1-.55-.46,5.18,5.18,0,0,1,.29-1.34c.35-1.07.81-2.1,1.09-3.18.56-2.18.07-3.32-1.82-4.5a13.78,13.78,0,0,0-4.16-1.61c-2.32-.54-4.24,0-5.55,2.12-.63,1-1.4,2-2,3-1.38,2.33-2.78,4.65-4,7-3.71,6.92-7.35,13.87-11,20.8a29.19,29.19,0,0,1-2.24,3.88c-3.23,4.35-6.49,8.68-9.85,12.93a51.07,51.07,0,0,1-7.51,7.91,20.2,20.2,0,0,1-4.21,2.75,7.52,7.52,0,0,1-2.7.68,2.48,2.48,0,0,1-2.75-2.23,5.5,5.5,0,0,1,.2-2.21,33.13,33.13,0,0,1,2.46-6.55c2.08-4.39,4.46-8.63,6.84-12.86,3.71-6.59,7.46-13.17,11.1-19.8,1.17-2.13,2.1-4.38,3.06-6.61a9.93,9.93,0,0,0,.69-2.7,2.17,2.17,0,0,0-1.63-2.59c-1.23-.43-2.5-.78-3.76-1.09a3.52,3.52,0,0,0-3,.55,19.22,19.22,0,0,0-2.19,1.74c-1.42,1.35-2.8,2.74-4.18,4.14-2.51,2.55-3,3-4.51-.57a10.45,10.45,0,0,0-7.82-6.19,14.25,14.25,0,0,0-3.61-.33c-.56,0-1.13,0-1.68,0s-1.11.18-1.66.26a36.59,36.59,0,0,0-16.3,7.07,71.72,71.72,0,0,0-22.21,27A45.85,45.85,0,0,0,184,235.1a23.53,23.53,0,0,0,2,12,14.24,14.24,0,0,0,6.13,6.72,13,13,0,0,0,8.07,1.78,24.62,24.62,0,0,0,9.68-3.51,49.53,49.53,0,0,0,8.32-6.61c.6-.58,1.19-1.19,1.83-1.73s1.36-.54,1.81.32.71,1.52,1.06,2.28a18.27,18.27,0,0,0,2.7,4.24c3.36,4,8.17,4.4,12.21,2.69a19,19,0,0,0,3.64-2.07c1.6-1.14,3.08-2.43,4.6-3.67.58-.47,1.1-1,1.69-1.47a.91.91,0,0,1,.76-.17c.41.22.26.64.12,1s-.32.67-.49,1c-2.12,4.06-4.26,8.11-6.37,12.17-2.72,5.22-5.41,10.46-7.79,15.84a24.9,24.9,0,0,0-1.53,4.21,5.22,5.22,0,0,0,.36,3.55,11.36,11.36,0,0,0,5,5.17,3.34,3.34,0,0,0,4.15-.4,23.87,23.87,0,0,0,2.51-2.62,54.85,54.85,0,0,0,4.45-6.46c2.86-4.71,5.58-9.51,8.08-14.42,3-5.91,6-11.83,9-17.75a15.88,15.88,0,0,1,1-1.69.81.81,0,0,1,1.4,0c.5.67,1,1.38,1.44,2.07a19.75,19.75,0,0,0,6.54,6,13.34,13.34,0,0,0,8.3,2,24.42,24.42,0,0,0,9.92-3.62,44.78,44.78,0,0,0,7.46-5.91,79.31,79.31,0,0,0,18.05-27.75,55.84,55.84,0,0,0,3.9-16A25.07,25.07,0,0,0,322.76,192.11Zm-88.5,12.22a32.79,32.79,0,0,1-2.51,6.52,56,56,0,0,1-14.89,18.36c-.14.11-.3.21-.44.34-.73.6-.69,1.11.13,1.42a16.35,16.35,0,0,1,1.58.55,1.41,1.41,0,0,1,.67,1.91,6.1,6.1,0,0,1-1.06,1.63,27.79,27.79,0,0,1-10.21,6.7,5.28,5.28,0,0,1-1.36.32,4.15,4.15,0,0,1-4.7-2.7,12.33,12.33,0,0,1-.7-5.2,24.58,24.58,0,0,1,1.23-7.47A76.19,76.19,0,0,1,216.85,199a29.62,29.62,0,0,1,5.56-5.11,14.26,14.26,0,0,1,4.79-2.22,5.43,5.43,0,0,1,5.94,2.13,7.52,7.52,0,0,1,1.63,4.4A18.51,18.51,0,0,1,234.26,204.33Zm74.38-5.11c-.17.8-.39,2.09-.72,3.35a64.19,64.19,0,0,1-3.1,8.69,140.34,140.34,0,0,1-11,21,53.64,53.64,0,0,1-5.55,7.37,13.58,13.58,0,0,1-3.67,3,3.94,3.94,0,0,1-4.46-.38,9,9,0,0,1-2.34-2.75,28.37,28.37,0,0,1-3-7.81,4.48,4.48,0,0,1,.4-3.25c.22-.41.41-.84.61-1.26,3.4-6.95,6.83-13.89,10.18-20.87a12.48,12.48,0,0,1,3.6-4.54,81.21,81.21,0,0,1,7.42-5.49c1.11-.68,2.24-1.33,3.4-1.92a8.8,8.8,0,0,1,2.1-.76C306.18,192.79,308.74,194.93,308.64,199.22Z"/><path class="cls-2" d="M207.69,154.05c-.69,1.73-1.34,3.49-2.13,5.18-2.95,6.26-6.3,12.31-9.63,18.36-7.61,13.85-14.73,27.93-21,42.41a129.84,129.84,0,0,0-7.37,21.15,59.65,59.65,0,0,0-2,15.79,20.54,20.54,0,0,0,1.4,7.11,12.27,12.27,0,0,0,18.36,5.82,3.81,3.81,0,0,1,1.7-.94c.31-.05.8.37.69.68a5.76,5.76,0,0,1-.61,1.54c-3.85,5.4-8.69,9.65-15.23,11.23a17.24,17.24,0,0,1-16-4A24.83,24.83,0,0,1,148,264.51a28.15,28.15,0,0,1-.71-6.8,73.93,73.93,0,0,1,3.23-20.56,187.8,187.8,0,0,1,10.4-27.49,318.69,318.69,0,0,1,19.66-36.49,13.07,13.07,0,0,0,.94-1.72.82.82,0,0,0-.1-.76c-.31-.33-.71-.14-1,.14-.73.84-1.48,1.68-2.13,2.59-3.7,5.17-7.44,10.31-11,15.54-9.19,13.41-18.29,26.88-27.47,40.3-3.59,5.24-7.27,10.41-11,15.59a59.26,59.26,0,0,1-3.82,4.84,16.29,16.29,0,0,1-6.81,4.78c-3.53,1.23-7.18,1-10.81.6a4.32,4.32,0,0,1-1.31-.48,2.06,2.06,0,0,1-1.2-2.77,8.84,8.84,0,0,1,1.19-2.2,31.63,31.63,0,0,0,3.66-6.92q13-32.08,25.17-64.48c.53-1.39,1-2.82,1.42-4.25a.8.8,0,0,0-.26-1,1,1,0,0,0-1.28.16,22.09,22.09,0,0,0-1.91,2.4c-2.23,3.45-4.45,6.91-6.62,10.4-4.78,7.7-9.57,15.4-14.67,22.89a203.78,203.78,0,0,1-22.09,27.85,85.67,85.67,0,0,1-15,12.61,45.24,45.24,0,0,1-13.74,6.16,29.83,29.83,0,0,1-13.87.2A23.46,23.46,0,0,1,31,243.73a33.07,33.07,0,0,1-3.71-11.68,39.55,39.55,0,0,1-.4-5.59c0-8.62,2.88-16.5,7.85-23.84a50.93,50.93,0,0,1,21-18,35.8,35.8,0,0,1,16-3.63,17.44,17.44,0,0,1,14.86,8.1A20.48,20.48,0,0,1,89.45,207a37,37,0,0,1-10.89,17A31.59,31.59,0,0,1,70,229.72a22.51,22.51,0,0,1-14.52,1.19,2.65,2.65,0,0,1-.76-.36.72.72,0,0,1-.26-.45.61.61,0,0,1,.25-.45,8.51,8.51,0,0,1,1.3-.5,14.91,14.91,0,0,0,4.71-2.41,47.42,47.42,0,0,0,11.06-11.42,34.4,34.4,0,0,0,3.39-6.44A24.64,24.64,0,0,0,76.6,197a12.35,12.35,0,0,0-1.15-4,8.55,8.55,0,0,0-8.76-5.26,16.69,16.69,0,0,0-6.46,1.66,27.58,27.58,0,0,0-7.31,5.14A46.78,46.78,0,0,0,39.13,220a24.73,24.73,0,0,0,.93,12.45,15.43,15.43,0,0,0,11.37,10.59,23.25,23.25,0,0,0,15.87-1.37,46.53,46.53,0,0,0,12.8-8.94A118.77,118.77,0,0,0,94.49,216c4.67-6.43,9-13.11,13.17-19.84,6.78-10.86,13.79-21.57,21.56-31.76a120.92,120.92,0,0,1,12.14-13.93,13.65,13.65,0,0,1,5.06-3.44,20.7,20.7,0,0,1,11.59-.67,4.28,4.28,0,0,1,3.57,4.38,13.12,13.12,0,0,1-.74,4.4c-1.45,5-3.28,9.93-5.15,14.82-6,15.8-12.51,31.41-19.07,47a14,14,0,0,0-1.23,3.42.69.69,0,0,0,.51.86.89.89,0,0,0,.75-.18,12.15,12.15,0,0,0,1.36-1.76q9.36-14.81,19.35-29.2c7.62-11,15.37-21.86,24-32.07a87.37,87.37,0,0,1,7.15-7.5,15.17,15.17,0,0,1,10.93-4.29c1.21,0,2.43,0,3.64,0a6.18,6.18,0,0,1,2.93.85,4,4,0,0,1,2.15,3.39A8.54,8.54,0,0,1,207.69,154.05Z"/></g></svg>