<svg xmlns="http://www.w3.org/2000/svg" viewBox="0 0 1000 552.04"><defs><style>.cls-1{fill:#e09035;}.cls-2{fill:#fff;}</style></defs><g id="Layer_2" data-name="Layer 2"><path class="cls-1" d="M500,511.81a235.85,235.85,0,0,1-91.79-453A235.85,235.85,0,0,1,591.79,493.28,234.32,234.32,0,0,1,500,511.81Zm0-448.69c-117.39,0-212.89,95.51-212.89,212.9S382.61,488.91,500,488.91,712.89,393.41,712.89,276,617.39,63.12,500,63.12Z"/><path class="cls-1" d="M581.22,368c-15.31.21-29.86-3.28-43.93-9.1a53.19,53.19,0,0,1-5.25-2.26c-2.82-1.55-5-.85-7.16,1.31a80.64,80.64,0,0,1-6.77,6.17,114.78,114.78,0,0,1-57.05,24.66,133.83,133.83,0,0,1-29.11.75C416,388.2,401.42,383.09,389.34,372c-9.38-8.57-14.92-19.22-17.26-31.57a69.17,69.17,0,0,1-.52-23.89,62,62,0,0,1,14.74-31.71A123.36,123.36,0,0,1,422.9,256c9.31-4.87,18.77-9.35,28.36-13.62.69-.31,1.37-.67,2.08-.93a5.4,5.4,0,0,0,3.67-4.68c.49-3.59,1-7.17,1.53-10.75,1.92-12.73,6-24.83,11-36.61a142.23,142.23,0,0,1,23.74-38.25,77.67,77.67,0,0,1,20.64-17c8.19-4.53,17-6.72,26.44-5.48,16.53,2.17,24.16,15.12,22.68,30.22-1.27,13-7,24.07-14.74,34.24-7,9.15-15.25,17.06-23.87,24.61a262.47,262.47,0,0,1-40,28.52,11,11,0,0,1-1,.57c-2.75,1.27-3.82,3.37-3.72,6.43A73.2,73.2,0,0,0,482,268.47c3.76,15.17,11.5,28.19,21.67,39.84a103.27,103.27,0,0,0,18.65,16.84c3.93,2.75,4.38,2.65,7.41-1.16a109.12,109.12,0,0,0,11.42-17.81,265,265,0,0,0,11.64-26.12,98.18,98.18,0,0,0,5.47-18.64,20.78,20.78,0,0,1,2-6.53c1.93-3.55,5.23-4,7.9-1.06a16.18,16.18,0,0,1,4.14,13.24,89,89,0,0,1-2.19,11.81,203.57,203.57,0,0,1-15.81,41.65c-2.37,4.56-5.08,9-7.69,13.39s-2.57,4.5,2.44,6.17c4.16,1.38,8.34,2.75,12.6,3.76A93.31,93.31,0,0,0,586,346.72a41.48,41.48,0,0,0,13.43-2.59,33,33,0,0,0,15.43-11.39c6.41-8.68,10.93-18.34,14.5-28.44,1.78-5,3.06-10.23,4.63-15.33a75.93,75.93,0,0,1,3-8.65c1.55-3.47,4.58-3.92,7.42-1.37,2.19,2,2.55,4.51,2.31,7.32a179.76,179.76,0,0,1-4.09,24.81,92.27,92.27,0,0,1-20.46,40.44A46.56,46.56,0,0,1,588.66,368C586.19,368.11,583.7,368,581.22,368Zm-135.12-1.8c8.16-.54,16.33-1.12,24.33-3,12-2.86,22.77-8.57,33-15.34,5.59-3.71,5.53-4.25.42-8.49a144.64,144.64,0,0,1-29.75-33c-7.58-11.83-13.09-24.51-15.49-38.44-.19-1.13-.46-2.25-.74-3.35-.74-2.83-1.39-3.26-4-2.3-3.22,1.2-6.38,2.53-9.57,3.8-15.16,6.05-27.09,16.17-36.27,29.51a50.72,50.72,0,0,0-8.25,40.28c2.76,13.47,10.79,22.4,23.74,26.9C430.85,365.29,438.47,365.69,446.1,366.18Zm88.4-219.33a20,20,0,0,0-8.83,2.05c-6.81,2.94-12.1,7.77-16.87,13.34-12.46,14.56-20.82,31.34-26.65,49.45-1.33,4.15-2.12,8.49-3.07,12.76-.25,1.09-.54,2.44.42,3.24s2.12-.1,3.08-.65c.66-.38,1.28-.82,1.92-1.23a227.66,227.66,0,0,0,42.66-36,89.41,89.41,0,0,0,11.07-14.52,43.33,43.33,0,0,0,6-15.91,13.25,13.25,0,0,0-.81-7.82,7.32,7.32,0,0,0-6.12-4.52C536.41,146.89,535.45,146.9,534.5,146.85Z"/><path class="cls-2" d="M909.4,126.42a33.93,33.93,0,0,1-4.28,8.07c-4.28,6.32-8.56,12.64-13,18.85a610.14,610.14,0,0,0-47,78.46c-17.24,34-33.69,68.47-50.4,102.76-6.19,12.69-12.46,25.34-18.92,37.89a127.7,127.7,0,0,1-34.19,41.76c-8.7,7-18.09,12.76-28.66,16.43-9.65,3.36-19.46,5.14-29.78,3.43-4.7-.78-9.44-1.27-14-2.67a50.49,50.49,0,0,1-13.92-6.58c-10.06-6.91-15.6-16.5-16.8-28.61a94.76,94.76,0,0,1,0-15.44c.27-4.24,1.74-8.19,3.36-12.07a50.41,50.41,0,0,1,17.4-22.24c9.59-6.85,20.32-8.34,31.63-6.65,7.93,1.18,13.47,6,17.36,12.79s4.73,14,4.93,21.52a15,15,0,0,1-.77,3.9c-.19.75-.58,1.5-1.44,1.6s-1.29-.64-1.43-1.41c-1.8-9.9-9.24-13-17.79-14.15a43.59,43.59,0,0,0-18.17,1.08c-10,3-17.05,9.18-19.71,19.57A22.26,22.26,0,0,0,666,410.42a33.17,33.17,0,0,0,16.73,2.75c9.68-.73,18-4.63,25.53-10.52a81.14,81.14,0,0,0,11.5-11.12c11.12-12.93,20.33-27.2,28.86-41.89,9.49-16.35,17.26-33.59,25.23-50.71a8.23,8.23,0,0,0,.71-2.71.89.89,0,0,0-1.15-.88c-1.38.31-2.23,1.43-3.21,2.31-6.83,6.11-13.77,12.07-21.09,17.6A120.54,120.54,0,0,1,728.79,328,53.65,53.65,0,0,1,717,332.23c-11.72,2.56-19.82-1.76-24.86-11.36A36.87,36.87,0,0,1,688.23,297c2-11.3,6.73-21.46,13.08-30.85Q712.22,250,723.65,234.3c5.38-7.4,11.18-14.5,16.81-21.73,6.81-8.72,13.49-17.54,19.66-26.74,4.88-7.3,9.49-14.77,12.89-22.9,2.74-6.58,4.62-13.33,4.06-20.58a21,21,0,0,0-1.24-6.14,12.22,12.22,0,0,0-11.93-8.16,22.74,22.74,0,0,0-7.78,1.68A46.9,46.9,0,0,0,743.19,137c-4.21,3.27-8.38,6.65-12.27,10.29a208.63,208.63,0,0,0-22.78,25.65c-8.42,11-14.56,23.25-19.59,36.09a65.14,65.14,0,0,0-3.37,12.7,23.58,23.58,0,0,0-.11,8.54c1.34,6.93,7.34,10.08,13.85,7.27,1.69-.72,3.28-1.67,5.6-2.87a8.86,8.86,0,0,1-4.26,5.23c-9.47,5.49-19.5,7.76-30.16,4.18-9.62-3.23-14.48-10.62-16.68-20.16-1.59-6.88-.92-13.64.7-20.39,3-12.43,8.87-23.49,16-34,7.72-11.3,17.35-20.71,28.05-29.16a111.15,111.15,0,0,1,20.06-13.12c8.47-4.13,17.3-7.32,26.62-8.41,10.42-1.21,20.93-1.4,31.2,1.71,17.3,5.23,27.26,18.27,27.84,36.28a65.41,65.41,0,0,1-3.26,22.52c-3.6,11.15-8.87,21.5-14.79,31.54A457.78,457.78,0,0,1,760,249.37c-7.68,10.46-15.47,20.84-23.07,31.35-3,4.17-5.75,8.54-8.43,12.94a36.1,36.1,0,0,0-2.77,6.25c-.75,2-1,4.18.68,5.93,1.86,2,4.2,1.56,6.4.8a33.48,33.48,0,0,0,5.75-2.51c3.32-1.89,6.61-3.83,9.74-6a294.33,294.33,0,0,0,40.21-33.89,23.55,23.55,0,0,0,4.7-7.1q7.8-17.19,15.71-34.35c6.58-14.18,13.17-28.38,20.72-42.09A175,175,0,0,1,871,130a66.17,66.17,0,0,1,15.87-10.13,27.08,27.08,0,0,1,12.79-2.51,19.8,19.8,0,0,1,6.63,1.63C909.73,120.52,910.63,122.83,909.4,126.42Z"/><path class="cls-2" d="M413.74,152.89c-1.4,3.54-2.71,7.13-4.34,10.58-6,12.78-12.85,25.13-19.65,37.5-15.54,28.27-30.1,57-43,86.61a267,267,0,0,0-15.05,43.18c-2.57,10.58-4.42,21.28-4.13,32.26a41.58,41.58,0,0,0,2.85,14.51c7.05,17.7,26.81,19.56,37.5,11.89,1.08-.77,2.05-1.73,3.46-1.93.65-.09,1.63.76,1.43,1.39a11.6,11.6,0,0,1-1.26,3.14c-7.86,11-17.74,19.72-31.11,23-12,2.88-23.07,0-32.57-8.15-8.73-7.55-13.6-17.27-16.11-28.36a57.15,57.15,0,0,1-1.44-13.87c0-15.72,2.94-28.93,6.59-42,5.41-19.35,12.91-37.91,21.25-56.14a647.75,647.75,0,0,1,40.15-74.52,29.75,29.75,0,0,0,1.92-3.5,1.76,1.76,0,0,0-.21-1.55c-.64-.67-1.47-.3-2,.27-1.5,1.73-3,3.45-4.34,5.3-7.55,10.55-15.19,21-22.53,31.74-18.77,27.38-37.35,54.89-56.1,82.29-7.33,10.7-14.86,21.27-22.38,31.84-2.44,3.41-5,6.73-7.79,9.88A33.27,33.27,0,0,1,231,358c-7.22,2.52-14.67,2-22.09,1.22a8.14,8.14,0,0,1-2.67-1c-2.42-1.19-3.37-3.16-2.46-5.66a18.27,18.27,0,0,1,2.44-4.49,64.82,64.82,0,0,0,7.48-14.13q26.52-65.51,51.39-131.67c1.08-2.85,2-5.77,2.9-8.68a1.65,1.65,0,0,0-.53-2.05,2,2,0,0,0-2.61.32,42.87,42.87,0,0,0-3.9,4.91c-4.56,7.05-9.09,14.11-13.52,21.24-9.76,15.73-19.54,31.44-29.95,46.75-13.64,20.06-28.17,39.43-45.12,56.87-9.34,9.6-19.29,18.49-30.59,25.75-8.71,5.59-17.93,10.1-28.07,12.57a60.66,60.66,0,0,1-28.32.41A47.86,47.86,0,0,1,53,336a67.59,67.59,0,0,1-7.57-23.85,81.19,81.19,0,0,1-.81-11.42c0-17.6,5.88-33.7,16-48.7a104.06,104.06,0,0,1,42.94-36.77c10.31-4.79,21.11-7.63,32.63-7.41,13,.25,23.17,5.89,30.36,16.54a41.84,41.84,0,0,1,5.71,36.62c-4,13.74-11.77,25.13-22.23,34.76a64.45,64.45,0,0,1-17.59,11.61c-9.62,4.26-19.52,4.75-29.66,2.43a4.76,4.76,0,0,1-1.54-.74,1.35,1.35,0,0,1-.53-.92,1.17,1.17,0,0,1,.52-.9,15.6,15.6,0,0,1,2.63-1,30.4,30.4,0,0,0,9.63-4.92A97.06,97.06,0,0,0,136.11,278,70.37,70.37,0,0,0,143,264.87c3.17-7.8,3.81-15.9,3-24.18a25.47,25.47,0,0,0-2.34-8.22c-3.46-7.47-9.71-11.2-17.89-10.74a34.35,34.35,0,0,0-13.21,3.4,55.92,55.92,0,0,0-14.91,10.5c-14.71,14.42-24.47,31.59-28.17,52A50.84,50.84,0,0,0,71.41,313c3.8,11.42,11.67,18.6,23.23,21.62a47.53,47.53,0,0,0,32.41-2.79c9.87-4.45,18.34-10.87,26.14-18.26,11-10.4,20.53-22,29.39-34.28,9.53-13.14,18.29-26.78,26.89-40.54,13.86-22.17,28.17-44,44-64.84a244.7,244.7,0,0,1,24.79-28.45c3.06-2.93,6.24-5.69,10.33-7,7.75-2.52,15.63-3.37,23.66-1.37,4.75,1.18,7,4.09,7.31,8.95a27.41,27.41,0,0,1-1.51,9c-3,10.27-6.72,20.28-10.52,30.26-12.28,32.28-25.56,64.15-39,96-1,2.28-2.15,4.48-2.5,7a1.4,1.4,0,0,0,1,1.75,1.86,1.86,0,0,0,1.54-.36,27,27,0,0,0,2.78-3.6q19.11-30.24,39.52-59.63c15.56-22.42,31.38-44.64,49-65.49a176.13,176.13,0,0,1,14.6-15.33,31,31,0,0,1,22.31-8.76c2.48,0,5,.06,7.44.11a12.64,12.64,0,0,1,6,1.73,8,8,0,0,1,4.38,6.92A17,17,0,0,1,413.74,152.89Z"/></g></svg>