<svg xmlns="http://www.w3.org/2000/svg" width="48" height="48" viewBox="0 0 48 48" fill="none">
  <path d="M46.5931 33.8001H44.4303C44.8624 33.0581 45.1297 32.2094 45.1784 31.3033C45.6084 31.2716 46.0973 31.1243 46.6389 30.7907C47.2918 30.3889 47.732 29.756 47.9115 28.9605C48.3235 27.1342 47.2186 24.4898 46.224 22.5998H46.5931C47.3699 22.5998 47.9994 21.973 47.9994 21.2001C47.9994 11.1643 39.7567 3 29.6251 3H18.375C8.24344 3 0.000750293 11.1643 0.000750293 21.2001C0.000750293 21.973 0.630268 22.5998 1.407 22.5998H1.77614C0.781513 24.4898 -0.323713 27.1342 0.088641 28.9605C0.268085 29.756 0.708271 30.3889 1.36123 30.7907C1.90285 31.1243 2.39175 31.2713 2.82168 31.303C2.87038 32.209 3.13772 33.0578 3.56985 33.8001H1.407C0.630268 33.8001 0.000750293 34.4268 0.000750293 35.2001C0.000750293 40.6037 4.41653 45 9.84415 45H38.156C43.5836 45 47.9994 40.6037 47.9994 35.2001C47.9994 34.4268 47.3699 33.8001 46.5931 33.8001ZM18.375 5.80007H29.6251C37.7293 5.80007 44.4065 11.9617 45.1231 19.8001H2.87698C3.59365 11.9617 10.2708 5.80007 18.375 5.80007ZM3.30837 27.8689C3.19045 28.0486 3.02859 28.2962 2.90554 28.4475C2.88943 28.4387 2.87185 28.4285 2.85317 28.4172C2.7532 28.2149 2.71401 27.2181 3.72769 25.0138C4.1686 24.0545 4.66922 23.1678 5.00686 22.5998H42.9936C43.3276 23.1613 43.8209 24.0348 44.2607 24.9882C45.2861 27.2093 45.2477 28.2138 45.1469 28.4172C45.1283 28.4285 45.1107 28.4387 45.0946 28.4475C44.9715 28.2962 44.8093 28.0486 44.6917 27.8689C44.0868 26.9454 43.0742 25.3999 40.9685 25.3999C38.9796 25.3999 37.9289 26.4462 37.1617 27.2101C36.4721 27.8966 36.1341 28.1999 35.3435 28.1999C34.5418 28.1999 34.1672 27.8733 33.4622 27.194C32.6763 26.4368 31.6 25.3999 29.6251 25.3999C27.6362 25.3999 26.5855 26.4462 25.8183 27.2101C25.1287 27.8966 24.7907 28.1999 24.0001 28.1999C23.2094 28.1999 22.8714 27.8966 22.1818 27.2101C21.4146 26.4462 20.3639 25.3999 18.375 25.3999C16.4001 25.3999 15.3238 26.4368 14.5379 27.194C13.8329 27.8733 13.4583 28.1999 12.6567 28.1999C11.866 28.1999 11.528 27.8966 10.8384 27.2101C10.0712 26.4462 9.02054 25.3999 7.03165 25.3999C4.92593 25.4002 3.91335 26.9457 3.30837 27.8689ZM42.3747 31C42.3747 32.5441 41.1128 33.8001 39.5622 33.8001H8.4379C6.88736 33.8001 5.62539 32.5441 5.62539 31C5.62539 29.725 6.4783 28.6298 7.68826 28.3002C8.07974 28.4395 8.38516 28.7275 8.84989 29.1898C9.6171 29.9536 10.6678 31 12.6567 31C14.632 31 15.7079 29.9631 16.4938 29.2058C17.1988 28.5266 17.5734 28.1999 18.375 28.1999C19.1657 28.1999 19.5037 28.5036 20.1933 29.1898C20.9605 29.9536 22.0115 31 24.0001 31C25.9886 31 27.0396 29.9536 27.8068 29.1898C28.4964 28.5036 28.8344 28.1999 29.6251 28.1999C30.4267 28.1999 30.801 28.5266 31.5063 29.2058C32.2922 29.9631 33.3681 31 35.3435 31C37.3324 31 38.383 29.9536 39.1502 29.1898C39.615 28.7275 39.9204 28.4395 40.3119 28.3002C41.5218 28.6298 42.3747 29.725 42.3747 31ZM9.84415 42.1999C6.44864 42.1999 3.60757 39.7911 2.95425 36.6001H17.9063L25.4063 42.1999H9.84415ZM22.5938 36.6001H36.7215L29.6284 41.8525L22.5938 36.6001ZM38.156 42.1999H33.8717L41.4339 36.5812H45.0459C44.3926 39.7725 41.5515 42.1999 38.156 42.1999Z" fill="#DE862B"/>
  <path d="M20 10.5C20 11.3281 19.3284 12 18.4998 12C17.6716 12 17 11.3281 17 10.5C17 9.67148 17.6716 9 18.4998 9C19.3284 9 20 9.67148 20 10.5Z" fill="#DE862B"/>
  <path d="M34 12.4998C34 13.3284 33.3285 14 32.5 14C31.6719 14 31 13.3284 31 12.4998C31 11.6716 31.6719 11 32.5 11C33.3285 11 34 11.6716 34 12.4998Z" fill="#DE862B"/>
  <path d="M14 12.4998C14 13.3284 13.3285 14 12.5 14C11.6715 14 11 13.3284 11 12.4998C11 11.6716 11.6715 11 12.5 11C13.3285 11 14 11.6716 14 12.4998Z" fill="#DE862B"/>
  <path d="M28 10.5C28 11.3281 27.3281 12 26.5 12C25.6715 12 25 11.3281 25 10.5C25 9.67148 25.6715 9 26.5 9C27.3281 9 28 9.67148 28 10.5Z" fill="#DE862B"/>
  <path d="M26 15.5C26 16.3285 25.3285 17 24.5 17C23.6715 17 23 16.3285 23 15.5C23 14.6719 23.6715 14 24.5 14C25.3285 14 26 14.6719 26 15.5Z" fill="#DE862B"/>
</svg>