<svg xmlns="http://www.w3.org/2000/svg" width="48" height="48" viewBox="0 0 48 48" fill="none">
  <path d="M45.9241 3.65693C44.6915 2.49118 43.1161 1.90712 41.4888 2.01203C39.1028 2.16589 36.9147 2.34734 34.7986 2.52284C30.7882 2.85541 27.3291 3.14357 23.8137 3.13941C20.4221 3.13629 17.0746 2.85447 13.1986 2.52813C11.0833 2.35008 8.89609 2.16589 6.51141 2.01212C4.884 1.90731 3.30872 2.49128 2.07598 3.65712C0.756613 4.90462 0 6.6636 0 8.48287C0 9.95227 0.506221 11.3933 1.42539 12.5407C2.12275 13.4113 3.03461 14.0862 4.05371 14.4977C5.66865 24.4981 5.64849 32.0537 4.00993 42.0512C3.60055 44.5489 5.63237 47 8.1496 47C8.38143 47 8.6157 46.981 8.85072 46.9423C19.763 45.1497 28.2576 45.1492 39.1483 46.9408C41.9534 47.4023 44.4516 44.867 43.9903 42.0504C42.3485 32.0281 42.3275 24.4716 43.9425 14.4991C44.9626 14.088 45.8752 13.4132 46.5733 12.5423C47.4933 11.3946 48 9.95293 48 8.48287C48 6.6636 47.2434 4.90453 45.9241 3.65693ZM42.3818 12.0298C41.8285 12.1581 41.406 12.6093 41.3108 13.1735C39.4973 23.9134 39.4715 31.8651 41.2154 42.5122C41.3706 43.4595 40.5392 44.297 39.6012 44.1427C28.3849 42.2975 19.6363 42.2979 8.39849 44.1441C7.45758 44.2987 6.62934 43.4612 6.78458 42.5135C8.52514 31.8935 8.49852 23.9416 6.68625 13.1736C6.59119 12.6094 6.16906 12.158 5.61596 12.0294C3.99146 11.6514 2.81234 10.1599 2.81234 8.48287C2.81234 7.44385 3.24516 6.43867 3.99999 5.72485C4.62227 5.13645 5.47347 4.78639 6.3317 4.8414C8.6891 4.99346 10.8626 5.17642 12.9644 5.35344C16.7387 5.67117 20.3035 5.97133 23.8111 5.97454C27.4347 5.97615 31.1256 5.67212 35.0291 5.34843C37.1326 5.17397 39.3078 4.99365 41.6683 4.8413C42.5116 4.78639 43.3401 5.10063 44 5.72466C44.7548 6.43848 45.1877 7.44376 45.1877 8.48277C45.1877 10.161 44.0076 11.6527 42.3818 12.0298Z" fill="#DE862B"/>
  <path d="M36.5077 20.489C36.8342 19.684 36.9997 18.8477 36.9997 18.0035C36.9997 15.4838 35.5681 13.1581 32.9685 11.4548C30.5524 9.87182 27.3674 9 23.9999 9C20.6324 9 17.4472 9.87182 15.0312 11.4548C12.4316 13.1581 11 15.4838 11 18.0035C11 18.8231 11.1562 19.6358 11.4641 20.4195C11.55 20.6378 11.685 20.8218 11.8507 20.9649C11.2923 21.9833 11 23.0802 11 24.2168C11 25.061 11.1655 25.8973 11.492 26.7023C11.5718 26.899 11.692 27.0663 11.8379 27.2014C11.2878 28.2132 11 29.3021 11 30.4301C11 31.2743 11.1655 32.1106 11.492 32.9156C11.5718 33.1123 11.692 33.2797 11.8379 33.4148C11.2878 34.4265 11.0001 35.5154 11.0001 36.6433C11.0001 37.4876 11.1656 38.3239 11.4921 39.1288C11.7057 39.6556 12.2157 40 12.7823 40H18.4361C19.0702 40 19.6242 39.5701 19.7841 38.954C19.9319 38.3846 21.4671 37.3671 24 37.3671C26.533 37.3671 28.0683 38.3845 28.216 38.954C28.3759 39.57 28.9299 40 29.564 40H35.2178C35.7844 40 36.2944 39.6556 36.508 39.1288C36.8345 38.3239 37 37.4876 37 36.6433C37 35.5157 36.7124 34.4272 36.1626 33.4156C36.3085 33.2805 36.4282 33.1123 36.508 32.9156C36.8345 32.1106 37 31.2743 37 30.4301C37 29.3024 36.7124 28.2138 36.1625 27.2024C36.3085 27.0673 36.4282 26.8991 36.508 26.7024C36.8345 25.8974 37 25.0611 37 24.2169C37 23.0892 36.7124 22.0006 36.1626 20.9891C36.3096 20.8524 36.429 20.6832 36.5077 20.489ZM23.9999 11.797C29.5364 11.797 34.2137 14.6392 34.2137 18.0034C34.2137 18.1924 34.1983 18.3814 34.1687 18.5697C33.8016 18.2533 33.4016 17.9519 32.9684 17.6681C30.5523 16.0851 27.3673 15.2132 23.9998 15.2132C20.6323 15.2132 17.4471 16.0851 15.0311 17.6681C14.598 17.9519 14.1981 18.2533 13.8311 18.5696C13.8016 18.3814 13.7859 18.1924 13.7859 18.0035C13.7859 14.6392 18.4633 11.797 23.9999 11.797ZM32.9685 30.0946C30.5524 28.5116 27.3674 27.6398 23.9999 27.6398C20.6324 27.6398 17.4472 28.5116 15.0312 30.0946C14.598 30.3784 14.198 30.68 13.8309 30.9964C13.8014 30.8081 13.786 30.6191 13.786 30.4301C13.786 27.0659 18.4634 24.2236 23.9999 24.2236C29.5364 24.2236 34.2137 27.0658 34.2137 30.4301C34.2137 30.6191 34.1983 30.8081 34.1688 30.9964C33.8016 30.68 33.4016 30.3784 32.9685 30.0946ZM34.1687 24.7831C33.8016 24.4666 33.4016 24.1652 32.9684 23.8813C30.5523 22.2983 27.3673 21.4265 23.9998 21.4265C20.6323 21.4265 17.4471 22.2983 15.0311 23.8813C14.5979 24.1651 14.198 24.4666 13.8308 24.7831C13.8012 24.5947 13.7858 24.4057 13.7858 24.2168C13.7858 20.8525 18.4632 18.0103 23.9997 18.0103C29.5362 18.0103 34.2137 20.8524 34.2137 24.2168C34.2137 24.4057 34.1983 24.5947 34.1687 24.7831ZM34.1703 37.203H30.434C29.362 35.6113 26.91 34.5702 23.9999 34.5702C21.0897 34.5702 18.6377 35.6113 17.5657 37.203H13.8294C13.8005 37.0169 13.786 36.8301 13.786 36.6433C13.786 33.2791 18.4634 30.4369 23.9999 30.4369C29.5364 30.4369 34.2137 33.279 34.2137 36.6433C34.2137 36.8301 34.1993 37.0169 34.1703 37.203Z" fill="#DE862B"/>
</svg>