<svg xmlns="http://www.w3.org/2000/svg" width="48" height="48" viewBox="0 0 48 48" fill="none">
  <path d="M46.5938 36.4706H44.371C44.8815 35.6062 45.1758 34.5976 45.1758 33.5207C45.1758 31.6602 44.2991 30.0031 42.9413 28.9441C42.9847 28.6067 43.0095 28.2635 43.0095 27.9144C43.0095 23.5203 39.4634 19.9455 35.1046 19.9455C34.889 19.9455 34.6761 19.9567 34.4647 19.9738L38.0724 16.3369C39.7167 17.0409 41.6982 16.7082 43.0148 15.3808C43.8626 14.5263 44.3294 13.39 44.3294 12.1814C44.3294 10.9728 43.8626 9.83655 43.0148 8.98199C42.3551 8.31693 41.5213 7.88653 40.6306 7.72662C40.4721 6.82878 40.0451 5.98803 39.3854 5.32297C37.6353 3.55904 34.788 3.55895 33.0381 5.32306C31.7213 6.65035 31.3913 8.648 32.0897 10.3056L27.1477 15.2875C22.7833 18.2379 17.8358 20.4376 12.439 21.8243C10.4228 22.3422 8.57419 23.4022 7.09303 24.8897C3.99459 28.0013 2.99803 32.481 4.11825 36.4705H1.40625C0.629625 36.4705 0 37.1053 0 37.8882C0 41.8096 3.16472 45 7.05469 45H40.9453C44.8353 45 48 41.8096 48 37.8882C48 37.1053 47.3704 36.4706 46.5938 36.4706ZM7.05469 42.1648C5.20828 42.1648 3.63347 40.9694 3.05203 39.3059H44.9479C44.3665 40.9694 42.7917 42.1648 40.9453 42.1648H7.05469ZM42.3633 33.5207C42.3633 35.1473 41.0506 36.4706 39.4371 36.4706C37.8235 36.4706 36.5108 35.1473 36.5108 33.5207C36.5108 31.8941 37.8235 30.5708 39.4371 30.5708C41.0506 30.5708 42.3633 31.8941 42.3633 33.5207ZM27.846 33.5207C27.846 31.8941 29.1587 30.5708 30.7721 30.5708C32.3857 30.5708 33.6983 31.8941 33.6983 33.5207C33.6983 35.1473 32.3857 36.4706 30.7721 36.4706C29.1587 36.4706 27.846 35.1473 27.846 33.5207ZM39.4371 27.7356C37.7087 27.7356 36.1576 28.5109 35.1046 29.7334C34.0516 28.5109 32.5005 27.7356 30.7721 27.7356C30.5154 27.7356 30.2632 27.7544 30.0154 27.7875C30.0286 27.2415 30.1265 26.7165 30.2968 26.2252C30.5165 25.784 30.7428 25.3475 30.9754 24.9154C31.9012 23.6237 33.4066 22.7807 35.1047 22.7807C37.8704 22.7807 40.1266 25.0152 40.1939 27.7874C39.946 27.7543 39.6937 27.7356 39.4371 27.7356ZM34.8527 11.5301C35.3701 11.0085 35.4043 10.1742 34.9314 9.61142C34.3735 8.9474 34.4154 7.94437 35.0269 7.32808C35.6801 6.66954 36.7432 6.66935 37.3968 7.32808C37.7939 7.72842 37.965 8.30011 37.8543 8.85733C37.7619 9.32223 37.9062 9.8029 38.2388 10.1381C38.5714 10.4734 39.0482 10.6188 39.5093 10.5258C40.0621 10.4143 40.6291 10.5867 41.0263 10.9872C41.3428 11.3062 41.5171 11.7304 41.5171 12.1817C41.5171 12.633 41.3428 13.0572 41.0263 13.3763C40.4149 13.9927 39.4199 14.0346 38.7614 13.4725C38.2032 12.9959 37.3755 13.0302 36.8582 13.5519L32.0356 18.4135L30.0302 16.3918L34.8527 11.5301ZM9.07791 26.8985C10.2026 25.7691 11.605 24.9646 13.1336 24.5719C18.4919 23.1951 23.4393 21.0567 27.8563 18.2102L30.2315 20.6045C29.6497 21.522 29.0994 22.4632 28.5778 23.4247C28.2273 23.9409 27.9362 24.5008 27.7126 25.0941C26.1139 28.3316 24.8438 31.7938 23.9212 35.4454C23.8329 35.7944 23.7227 36.1364 23.5936 36.4707H7.07869C5.85028 33.2608 6.52106 29.4662 9.07791 26.8985Z" fill="#DE862B"/>
</svg>