<svg xmlns="http://www.w3.org/2000/svg" width="48" height="48" viewBox="0 0 48 48" fill="none">
  <path d="M46.5938 38.5625H44.4116C44.9169 37.7148 45.1875 36.752 45.1875 35.75C45.1875 34.3358 44.6512 32.9984 43.6717 31.9548C44.5973 31.1803 45.1875 30.0174 45.1875 28.7188V20.2812C45.1875 16.3941 41.9498 13.25 38.0625 13.25C37.0769 13.25 28.9908 13.25 27.9769 13.25C28.133 12.8098 28.2188 12.3367 28.2188 11.8438C28.2188 9.51753 26.3262 7.625 24 7.625C23.3081 7.625 22.6553 7.79347 22.0785 8.08991C21.1871 6.15763 19.2326 4.8125 16.9688 4.8125C15.3369 4.8125 13.8657 5.51159 12.8373 6.62534C11.9067 5.83428 11.3438 4.66044 11.3438 3.40625C11.3438 2.62962 10.7141 2 9.9375 2C9.16088 2 8.53125 2.62962 8.53125 3.40625C8.53125 5.70247 9.663 7.83753 11.4961 9.14159C11.3975 9.55794 11.3438 9.99144 11.3438 10.4375C11.3438 11.4617 11.6202 12.4219 12.1005 13.25H11.3438C8.24212 13.25 5.71875 15.7734 5.71875 18.875C5.71875 20.765 6.65662 22.4389 8.09044 23.4594C7.01662 24.4118 6.23644 25.6869 5.90166 27.1313C4.13775 26.601 2.8125 24.9668 2.8125 23.0938C2.8125 22.3171 2.18288 21.6875 1.40625 21.6875C0.629625 21.6875 0 22.3171 0 23.0938C0 26.1706 2.01806 28.7276 4.68881 29.6972C3.55884 30.964 2.90625 32.6115 2.90625 34.3438C2.90625 35.9254 3.43153 37.3865 4.31634 38.5625H1.40625C0.629625 38.5625 0 39.1921 0 39.9688C0 43.856 3.23766 47 7.125 47H40.9688C44.8458 47 48 43.8458 48 39.9688C48 39.1921 47.3704 38.5625 46.5938 38.5625ZM28.2188 16.0625C29.5515 16.0625 36.5367 16.0625 38.0625 16.0625C40.4002 16.0625 42.375 17.9944 42.375 20.2812V28.7188C42.375 29.4942 41.7442 30.125 40.9688 30.125C40.1697 30.125 39.4688 29.4679 39.4688 28.7188C39.4688 28.1226 39.4688 23.6899 39.4688 23.0938C39.4688 20.7675 37.5762 18.875 35.25 18.875C32.9238 18.875 31.0312 20.7675 31.0312 23.0938C31.0312 23.8692 30.4004 24.5 29.625 24.5C28.8496 24.5 28.2188 23.8692 28.2188 23.0938V16.0625ZM24.2183 32.9375H39.4688C41.0441 32.9375 42.375 34.2254 42.375 35.75C42.375 37.2746 41.0441 38.5625 39.4688 38.5625H23.3957C23.5611 38.32 23.7119 38.0644 23.846 37.7964C24.6067 36.2751 24.7177 34.5207 24.2183 32.9375ZM29.625 27.3125C31.9512 27.3125 33.8438 25.42 33.8438 23.0938C33.8438 22.3183 34.4746 21.6875 35.25 21.6875C36.0254 21.6875 36.6562 22.3183 36.6562 23.0938C36.6562 23.6899 36.6562 28.1226 36.6562 28.7188C36.6562 29.2049 36.7421 29.6787 36.906 30.125H22.5561L18.9204 25.3485C18.7584 25.0523 18.5767 24.7687 18.3748 24.5H25.6481C26.2286 26.1367 27.7917 27.3125 29.625 27.3125ZM24 10.4375C24.7754 10.4375 25.4062 11.0683 25.4062 11.8438C25.4062 12.6192 24.7754 13.25 24 13.25C23.2246 13.25 22.5938 12.6192 22.5938 11.8438C22.5938 11.0683 23.2246 10.4375 24 10.4375ZM16.9688 7.625C18.5196 7.625 19.7812 8.88669 19.7812 10.4375C19.7812 11.9883 18.5196 13.25 16.9688 13.25C15.4179 13.25 14.1562 11.9883 14.1562 10.4375C14.1562 8.88669 15.4179 7.625 16.9688 7.625ZM11.3438 16.0625H25.4062V21.6875H11.3438C9.79294 21.6875 8.53125 20.4258 8.53125 18.875C8.53125 17.3242 9.79294 16.0625 11.3438 16.0625ZM6.49725 31.9348C6.54966 32.0367 6.60384 32.1379 6.66141 32.2373C7.05047 32.9094 7.91072 33.1389 8.583 32.7498C9.25509 32.3607 9.48459 31.5004 9.09544 30.8282C7.50234 28.076 9.45975 24.5 12.75 24.5C13.7883 24.5 14.7784 24.8783 15.5513 25.5658L20.969 32.6834C21.8082 33.786 21.9501 35.2992 21.3304 36.5385C20.7062 37.787 19.4513 38.5625 18.0555 38.5625H9.9375C7.61128 38.5625 5.71875 36.67 5.71875 34.3438C5.71875 33.4701 6.00047 32.6322 6.49725 31.9348ZM40.9688 44.1875H7.125C5.28844 44.1875 3.67584 42.9858 3.06891 41.3656C4.72941 41.3656 42.2881 41.3656 44.9466 41.3656C44.3662 43.0026 42.8021 44.1875 40.9688 44.1875Z" fill="#DE862B"/>
</svg>