<svg xmlns="http://www.w3.org/2000/svg" width="100" height="103" viewBox="0 0 100 103" fill="none">
  <path d="M15.862 94.101C18.9012 97.1921 22.4079 99.9583 26.4322 101.65C29.9974 103.141 33.9633 103.533 37.6203 102.133C42.0287 100.442 45.1346 96.4673 47.2637 92.418C48.7749 89.5352 49.9689 86.4941 51.3799 83.5613C52.8911 80.4285 54.5443 77.3374 56.6316 74.5379C58.6271 71.8634 61.0902 69.4555 64.1293 68.0058C67.0933 66.581 70.4748 66.2644 73.6892 66.8393C76.3276 67.3059 78.8575 68.2807 81.5293 68.5223C83.8838 68.7306 86.2382 68.2557 88.384 67.2975C89.0854 67.1059 89.7784 66.8393 90.4463 66.481C92.8926 65.1479 94.7545 62.8983 96.1322 60.5154C99.1379 55.308 100.349 49.1925 99.9144 43.2352C98.8874 29.1878 90.3545 16.6984 78.7907 8.99142C68.4793 2.12599 55.6631 -1.28173 43.3145 0.442961C37.1026 1.30947 31.0661 3.57573 25.8812 7.11676C20.8048 10.5911 16.2878 14.9987 12.4555 19.7978C5.25839 28.8045 0.808235 39.8358 0.106894 51.3588C-0.5527 62.1068 1.84355 73.1965 7.2038 82.5615C9.5917 86.7274 12.4889 90.6683 15.862 94.101Z" fill="#FDF9F4"/>
  <path d="M38.3602 83.2326C36.1616 83.3369 33.963 83.4893 31.7727 83.7139C29.5412 83.9385 27.3179 84.2433 25.0946 84.492C22.9619 84.7326 20.8292 84.9412 18.68 85.0455C16.5885 85.1497 14.5216 85.0936 12.4301 85.0294C10.9891 84.9893 9.48219 85.0374 8 85.246C8.16469 85.5027 8.32938 85.7513 8.49407 86C9.55631 85.8717 10.6185 85.8235 11.6396 85.8235C12.6195 85.8235 13.5994 85.8957 14.5875 85.9118C15.6415 85.9358 16.7038 85.9198 17.7578 85.8877C19.8328 85.8155 21.8914 85.639 23.9583 85.4225C26.1568 85.1898 28.3554 84.893 30.554 84.6444C32.7361 84.3957 34.9347 84.2193 37.1333 84.0989C41.5305 83.8503 45.9276 83.8021 50.333 83.8102C50.4154 83.8102 50.5059 83.8102 50.5883 83.8102C50.72 83.5374 50.86 83.2727 51 83C46.7758 83 42.568 83.0321 38.3602 83.2326Z" fill="#F5DBBF"/>
  <path d="M49.0045 70.3073C47.2592 70.2654 45.5887 69.9467 43.9015 69.519C42.3141 69.1081 40.7267 68.6217 39.0978 68.3953C37.6184 68.1856 36.1474 68.2192 34.6929 68.5714C33.413 68.8733 32.1996 69.4016 30.9779 69.8964C29.7562 70.3912 28.5012 70.8356 27.1797 70.953C25.609 71.0956 24.0049 71.0621 22.4342 71.0956C20.7886 71.1292 19.1513 71.1459 17.5057 71.1543C16.7328 71.1543 15.9515 71.1879 15.1786 71.0788C14.4556 70.9782 13.7408 70.7853 13.051 70.5421C11.7295 70.0809 10.4746 69.4435 9.16973 68.9236C7.85659 68.4037 6.51853 68.0682 5.10565 68.0095C3.88393 67.9592 2.66219 68.1102 1.48203 68.4204C1.31581 68.4624 1.15791 68.5127 1 68.5546C1.06649 68.8314 1.13298 69.1081 1.20778 69.3848C1.62333 69.259 2.03888 69.1416 2.45443 69.0578C3.66784 68.8146 4.93113 68.7727 6.15285 68.9404C7.52417 69.1333 8.81237 69.6532 10.0673 70.2151C11.3306 70.7685 12.6022 71.3556 13.9403 71.691C15.3947 72.0516 16.8741 72.0013 18.3534 71.9929C19.9907 71.9845 21.6197 71.9594 23.2569 71.9174C24.7612 71.8839 26.3154 71.9426 27.8031 71.7162C30.3795 71.3136 32.6152 69.8712 35.15 69.3261C38.275 68.6469 41.2919 69.7538 44.2922 70.4918C45.9045 70.886 47.5168 71.1375 49.1707 71.1627C50.9908 71.1962 52.811 71.0621 54.6311 70.953C56.1104 70.8692 57.5649 70.8273 59.0276 70.8608C59.3434 70.5757 59.6676 70.2989 60 70.0306C59.7839 70.0138 59.5678 70.0054 59.3517 69.997C55.9027 69.8293 52.4536 70.3828 49.0045 70.3073Z" fill="#F5DBBF"/>
  <path d="M7.37473 44.6609C8.98291 44.0804 10.4502 43.167 12.0086 42.4756C13.7992 41.6817 15.6727 41.2975 17.6207 41.2378C21.8401 41.1097 25.985 42.228 30.08 43.0902C32.0778 43.517 34.0922 43.8926 36.1232 44.0975C37.1676 44.2 38.2287 44.2597 39.2815 44.2341C40.1436 44.217 41.0306 44.1914 41.8513 43.8756C43.3186 43.3036 44.4625 41.9634 46.1453 42.1768C47.8032 42.3817 49.055 43.8073 50.257 44.8658C51.6414 46.078 53.0837 46.7865 54.9158 46.9572C56.897 47.145 58.8533 46.6755 60.7931 46.2999C61.8459 46.0951 62.9152 45.9243 63.9929 45.8987C65.1369 45.8731 66.2808 46.0097 67.4248 46.0353C69.6216 46.0951 71.8183 46.0097 74.0068 45.7963C78.3837 45.3865 82.7026 44.5158 87.0215 43.7304C91.0503 42.9963 95.021 41.8951 99 40.8536C98.9585 40.5634 98.9171 40.2817 98.8757 40C96.0323 40.7512 93.1973 41.528 90.3622 42.1768C86.0102 43.167 81.5752 43.9524 77.1568 44.567C75.0678 44.8573 72.9623 45.0707 70.8567 45.156C69.7376 45.1987 68.6185 45.2073 67.5077 45.1817C66.3637 45.156 65.2115 45.0195 64.0675 45.0365C60.2294 45.0878 55.7364 47.478 52.1222 45.2329C50.7129 44.3621 49.6518 42.9963 48.2592 42.1C46.9411 41.2463 45.3993 41.0244 43.9652 41.7158C43.2937 42.0402 42.6968 42.5012 42.042 42.8427C41.2213 43.2695 40.3509 43.3378 39.4473 43.3634C37.35 43.4317 35.261 43.1841 33.2052 42.8256C29.1018 42.1085 25.0648 40.939 20.9117 40.5122C18.9471 40.3073 16.9493 40.2902 14.9929 40.6317C13.2189 40.9476 11.5941 41.6817 9.98596 42.4927C8.41922 43.2951 6.82761 44.106 5.07021 44.3451C3.75216 44.5243 2.44239 44.3878 1.14921 44.106C1.09947 44.3707 1.04145 44.6439 1 44.917C3.11386 45.3695 5.22771 45.4377 7.37473 44.6609Z" fill="#F5DBBF"/>
  <path d="M22.4317 21.2215C24.4083 20.2898 25.92 18.5385 28.1292 18.133C30.7371 17.6499 33.3783 18.6075 35.9945 18.2883C37.4479 18.1158 38.7768 17.555 40.1223 17.0115C41.7502 16.3473 43.4445 15.89 45.172 15.6226C48.3198 15.1395 51.5174 15.2603 54.6818 15.105C56.4176 15.0187 58.1368 14.8375 59.8477 14.527C61.6999 14.1991 63.5852 14.0266 65.4622 13.9403C69.2329 13.7764 73.0119 13.9748 76.7826 14.0352C79.1828 14.0697 81.5997 14.1129 84 13.9231C83.701 13.6384 83.402 13.3623 83.0947 13.0863C82.0482 13.1553 81.0017 13.1812 79.9469 13.1812C76.1929 13.1812 72.4471 13.0086 68.7014 13C66.8077 13 64.9058 13.0518 63.0204 13.2243C61.2015 13.3882 59.4075 13.7764 57.5969 13.9835C54.3246 14.3717 51.0357 14.225 47.755 14.4493C46.1687 14.5615 44.5823 14.7685 43.0292 15.1481C41.3017 15.5708 39.7153 16.3214 38.0293 16.8994C36.8748 17.2962 35.7038 17.5033 34.4829 17.4601C33.1955 17.4084 31.9248 17.2272 30.6374 17.1582C29.2421 17.0892 27.8385 17.1496 26.5345 17.7017C25.5545 18.1158 24.7073 18.7542 23.8353 19.3753C22.8386 20.0827 21.7838 20.6693 20.5962 20.9627C19.1759 21.3164 17.6976 21.1697 16.2939 20.8246C15.0232 20.5227 13.794 20.0741 12.5565 19.6427C12.3904 19.8498 12.2326 20.0655 12.0665 20.2725C12.0415 20.2984 12.0249 20.3329 12 20.3588C12.7641 20.6176 13.5199 20.8936 14.2757 21.1438C16.975 22.0324 19.7656 22.481 22.4317 21.2215Z" fill="#F5DBBF"/>
  <path d="M5.30824 56.9032C6.83199 56.3458 8.28951 56.2327 9.88778 56.5154C12.0492 56.9032 14.1609 57.5656 16.2643 58.1877C18.4257 58.8258 20.6285 59.4236 22.8976 59.5448C25.1418 59.666 27.3032 59.2378 29.3901 58.4462C31.3361 57.711 33.1911 56.7739 35.2035 56.2084C37.3483 55.6107 39.5263 55.6107 41.6794 56.1357C45.6875 57.1213 49.2319 59.5206 53.3725 60.0538C55.7575 60.3607 58.1093 59.9407 60.4695 59.6498C61.6371 59.5044 62.8131 59.3994 63.9973 59.4479C65.1732 59.4963 66.1007 59.8033 67.169 60.2638C68.022 60.6354 68.9329 61.0232 69.8852 60.9989C70.7299 60.9828 71.5746 60.6515 72.2951 60.2234C73.8685 59.2863 74.9947 57.8322 76.8663 57.396C81.1477 56.3862 85.6941 59.052 89.843 57.0648C90.5386 56.7255 91.1514 56.2569 91.8056 55.853C92.7166 55.2875 93.702 54.924 94.7786 54.8432C95.7723 54.7705 96.7661 54.8513 97.7598 54.8513C97.8427 54.5766 97.9255 54.302 98 54.0273C97.8178 54.0354 97.6356 54.0354 97.4451 54.0354C96.3023 54.0192 95.1513 53.9304 94.0167 54.1162C93.0727 54.2777 92.1783 54.6574 91.3667 55.1583C90.7374 55.5541 90.1494 56.0146 89.4703 56.3377C88.4931 56.8143 87.3918 56.984 86.3069 57.0001C84.0379 57.0486 81.8268 56.475 79.566 56.3781C77.5122 56.2892 75.6158 56.677 73.9762 57.9291C72.6098 58.9713 71.1274 60.5142 69.2062 60.1184C68.2124 59.9083 67.3181 59.3994 66.374 59.044C65.3968 58.6804 64.3617 58.6158 63.3182 58.6239C60.9001 58.64 58.5317 59.1974 56.1218 59.3267C53.8694 59.4479 51.7494 58.9955 49.6459 58.2361C47.6998 57.5252 45.8283 56.6285 43.8739 55.9419C41.9609 55.2714 39.9403 54.819 37.8949 54.924C35.7666 55.0371 33.7625 55.7641 31.8247 56.572C29.8869 57.3798 27.9491 58.2604 25.854 58.5835C23.5187 58.947 21.1668 58.632 18.8977 58.0584C16.6535 57.4929 14.4673 56.7416 12.2148 56.1842C10.5917 55.7803 8.88574 55.3521 7.20465 55.5703C5.45731 55.7965 3.70997 56.572 2.17794 57.3879C1.40779 57.7999 0.712185 58.2927 0 58.737C0.0248437 59.0601 0.0496843 59.3913 0.074528 59.7145C0.828119 59.2621 1.51545 58.7047 2.2856 58.2684C3.2131 57.7272 4.26481 57.2829 5.30824 56.9032Z" fill="#F5DBBF"/>
  <path d="M15.7598 31.5358C17.2743 31.4235 18.7143 31.579 20.1791 32.0196C21.9087 32.5465 23.5556 33.3586 25.3183 33.7387C26.8493 34.067 28.5789 34.0843 29.9444 33.2031C31.3017 32.3392 32.3278 30.9311 33.9664 30.62C35.9609 30.2486 38.0133 31.1038 40.016 31.1125C42.1511 31.1211 44.2697 30.8101 46.38 30.4818C48.4076 30.1708 50.4683 29.7994 52.5289 29.8857C54.5896 29.9721 56.6171 30.4386 58.6695 30.5855C60.7219 30.7324 62.6998 30.3782 64.7025 29.9289C66.7549 29.4711 68.7908 28.9095 70.8349 28.3998C74.9727 27.3545 79.2513 26.4647 83.5216 27.0522C87.3201 27.5791 91.1601 28.3998 95 28.875C94.851 28.564 94.7021 28.2443 94.5531 27.9333C91.5077 27.5446 88.487 26.9571 85.4581 26.4734C83.5381 26.1624 81.6347 25.9377 79.6899 26.0155C77.6292 26.0932 75.5851 26.4302 73.5741 26.8621C71.4804 27.3113 69.4031 27.8815 67.3259 28.4085C65.2901 28.9268 63.2046 29.5056 61.1191 29.713C59.0171 29.9203 56.9399 29.5229 54.8627 29.2551C52.8268 28.9873 50.8655 28.9959 48.8297 29.2637C46.7359 29.5402 44.667 29.9376 42.5649 30.1363C41.5056 30.2313 40.4381 30.3004 39.3788 30.2486C38.3195 30.1967 37.2767 29.9376 36.2257 29.7994C35.3071 29.6784 34.3637 29.6352 33.4533 29.8685C32.7003 30.0672 32.0134 30.4818 31.401 30.9656C30.7803 31.4494 30.2093 32.0109 29.5555 32.4429C28.8438 32.9094 28.041 33.0735 27.2052 33.0822C25.4093 33.1167 23.7045 32.3824 22.0411 31.7604C20.4853 31.1816 18.9046 30.6892 17.2412 30.6373C14.2454 30.5423 11.1833 31.363 8.35305 32.3306C7.04548 32.7711 5.74618 33.2722 4.46344 33.8424C4.3062 34.2311 4.14896 34.6112 4 35C4.84413 34.6112 5.70481 34.2484 6.56548 33.9115C9.50337 32.7366 12.615 31.769 15.7598 31.5358Z" fill="#F5DBBF"/>
  <path d="M27.6234 8.51156C29.0734 8.12377 30.4902 7.60673 31.9236 7.16239C33.6802 6.61303 35.4616 6.19292 37.2928 5.9748C41.0379 5.53046 44.8162 5.76475 48.5696 5.49007C50.4504 5.35272 52.3312 5.07804 54.1458 4.561C54.7258 4.39134 55.3141 4.24592 55.9023 4.10858C58.9017 3.42996 61.9509 2.9533 65 2.56552C64.3703 2.36355 63.7406 2.17773 63.1109 2C61.0809 2.29084 59.0509 2.63015 57.0458 3.03409C55.3141 3.38148 53.6321 3.92277 51.9004 4.254C48.1884 4.95686 44.3853 4.77105 40.6319 4.91647C38.7179 4.98918 36.7956 5.15883 34.9148 5.53046C33.2245 5.86977 31.584 6.40298 29.9517 6.93618C28.0128 7.57441 25.9911 8.25304 23.9694 8.15609C23.6463 8.39038 23.3231 8.63274 23 8.87511C23.2154 8.9155 23.4309 8.94782 23.6546 8.96398C24.9969 9.09324 26.3391 8.85895 27.6234 8.51156Z" fill="#F5DBBF"/>
  <path d="M38.8605 93.3756C36.5989 93.17 34.3291 92.8986 32.0511 93.0384C30.9616 93.1042 29.8803 93.2687 28.8238 93.5566C27.8169 93.8362 26.8512 94.2063 25.8607 94.5188C24.8785 94.8314 23.8798 95.0945 22.8481 95.1521C21.7916 95.2097 20.7599 95.037 19.7447 94.7491C17.8298 94.1981 15.9974 93.3345 14 93.1371C14.3136 93.4743 14.6273 93.8115 14.9492 94.1487C16.2616 94.4284 17.5244 94.9136 18.8202 95.333C19.7694 95.6373 20.7351 95.8923 21.7338 95.9746C22.749 96.0568 23.7808 95.9334 24.7712 95.6949C26.7604 95.2179 28.6175 94.305 30.6562 94.0089C32.8847 93.6882 35.1297 93.8526 37.3583 94.0583C39.562 94.2639 41.7658 94.5106 43.9861 94.3543C44.4896 94.3214 44.9848 94.2639 45.48 94.1816C45.6616 93.8773 45.8349 93.573 46 93.2605C45.7854 93.3016 45.5625 93.3345 45.3479 93.3674C43.202 93.7128 41.0147 93.573 38.8605 93.3756Z" fill="#F5DBBF"/>
</svg>