<svg xmlns="http://www.w3.org/2000/svg" width="494" height="596" viewBox="0 0 494 596" fill="none">
  <path d="M-304 181.178C-243.774 153.33 -224.914 182.828 -164.688 154.98C-104.462 127.132 -123.322 97.6338 -63.113 69.7936C-2.90424 41.9534 15.9729 71.4436 76.199 43.5954C136.425 15.7472 117.565 -13.751 177.791 -41.5992C238.017 -69.4474 256.877 -39.9492 317.121 -67.8054C377.364 -95.6616 358.487 -125.152 418.713 -153M-153.045 417.284C-92.8184 389.436 -73.9586 418.934 -13.7325 391.086C46.4936 363.237 27.6337 333.739 87.8425 305.899C148.051 278.059 166.928 307.549 227.155 279.701C287.381 251.853 268.521 222.355 328.747 194.506C388.973 166.658 407.833 196.156 468.076 168.3C528.32 140.444 509.442 110.954 569.668 83.1055M-228.522 299.231C-168.296 271.383 -149.436 300.881 -89.2102 273.033C-28.9841 245.185 -47.8439 215.686 12.3648 187.846C72.5736 160.006 91.4508 189.496 151.677 161.648C211.903 133.8 193.043 104.302 253.269 76.4535C313.495 48.6053 332.355 78.1035 392.598 50.2473C452.842 22.3911 433.965 -7.09909 494.191 -34.9473M-77.5669 535.337C-17.3409 507.489 1.55732 537.047 61.7834 509.199C122.009 481.351 103.111 451.793 163.32 423.952C223.529 396.112 242.444 425.662 302.67 397.814C362.896 369.966 343.998 340.408 404.224 312.56C464.45 284.711 483.349 314.27 543.592 286.413C603.835 258.557 584.92 229.007 645.146 201.159M26.2392 697.696C86.4653 669.848 105.325 699.346 165.551 671.498C225.777 643.65 206.917 614.152 267.126 586.311C327.335 558.471 346.212 587.961 406.438 560.113C466.664 532.265 447.804 502.767 508.031 474.919C568.257 447.07 587.116 476.569 647.36 448.712C707.603 420.856 688.726 391.366 748.952 363.518M-266.28 240.175C-206.054 212.327 -187.156 241.885 -126.93 214.037C-66.7037 186.189 -85.6019 156.63 -25.3932 128.79C34.8156 100.95 53.7311 130.5 113.957 102.652C174.183 74.8037 155.285 45.2456 215.511 17.3974C275.737 -10.4508 294.635 19.1073 354.879 -8.74888C415.122 -36.6051 396.207 -66.1552 456.433 -94.0034M-115.286 476.34C-55.0604 448.492 -36.2005 477.99 24.0256 450.142C84.2516 422.294 65.3918 392.795 125.601 364.955C185.809 337.115 204.686 366.605 264.913 338.757C325.139 310.909 306.279 281.411 366.505 253.562C426.731 225.714 445.591 255.212 505.834 227.356C566.078 199.5 547.2 170.01 607.427 142.162M-190.764 358.287C-130.538 330.439 -111.678 359.937 -51.4523 332.089C8.77374 304.241 -10.0861 274.743 50.1227 246.903C110.331 219.062 129.209 248.553 189.435 220.704C249.661 192.856 230.801 163.358 291.027 135.51C351.253 107.662 370.113 137.16 430.356 109.304C490.6 81.4475 471.723 51.9573 531.949 24.1091M-39.8086 594.393C20.4175 566.545 39.2773 596.043 99.5034 568.195C159.73 540.347 140.87 510.849 201.078 483.009C261.287 455.168 280.164 484.658 340.39 456.81C400.617 428.962 381.757 399.464 441.983 371.616C502.209 343.768 521.069 373.266 581.312 345.41C641.555 317.553 622.678 288.063 682.904 260.215M62.9903 753.298C123.519 725.928 142.038 755.548 202.566 728.178C263.095 700.808 244.576 671.189 305.087 643.827C365.599 616.465 384.135 646.077 444.664 618.707C505.192 591.337 486.673 561.718 547.202 534.348C607.731 506.979 626.25 536.598 686.796 509.22C747.342 481.843 728.805 452.231 789.334 424.862M-285.14 210.677C-224.914 182.828 -206.055 212.327 -145.828 184.478C-85.6023 156.63 -104.462 127.132 -44.2534 99.2919C15.9553 71.4517 34.8325 100.942 95.0586 73.0937C155.285 45.2455 136.425 15.7473 196.651 -12.1009C256.877 -39.9491 275.737 -10.4509 335.98 -38.3071C396.224 -66.1634 377.346 -95.6535 437.573 -123.502M-134.184 446.782C-73.9584 418.934 -55.0602 448.492 5.16587 420.644C65.392 392.795 46.4938 363.237 106.703 335.397C166.911 307.557 185.827 337.107 246.053 309.259C306.279 281.411 287.381 251.852 347.607 224.004C407.833 196.156 426.731 225.714 486.975 197.858C547.218 170.002 528.302 140.452 588.529 112.603M-209.662 328.729C-149.436 300.881 -130.538 330.439 -70.3119 302.591C-10.0858 274.743 -28.984 245.185 31.2247 217.345C91.4335 189.504 110.349 219.054 170.575 191.206C230.801 163.358 211.903 133.8 272.129 105.952C332.355 78.1035 351.253 107.662 411.497 79.8055C471.74 51.9493 452.825 22.3991 513.051 -5.44906M-58.6686 564.894C1.55745 537.046 20.4173 566.544 80.6434 538.696C140.869 510.848 122.01 481.349 182.218 453.509C242.427 425.669 261.304 455.159 321.53 427.311C381.756 399.463 362.897 369.965 423.123 342.116C483.349 314.268 502.209 343.766 562.452 315.91C622.695 288.054 603.818 258.564 664.044 230.716M45.0992 727.195C105.325 699.347 124.185 728.845 184.411 700.997C244.637 673.149 225.777 643.65 285.986 615.81C346.195 587.97 365.072 617.46 425.298 589.612C485.524 561.764 466.664 532.266 526.891 504.417C587.117 476.569 605.976 506.067 666.22 478.211C726.463 450.355 707.586 420.865 767.812 393.017M-247.382 269.733C-187.156 241.885 -168.296 271.383 -108.07 243.535C-47.844 215.687 -66.7038 186.189 -6.49506 158.348C53.7137 130.508 72.5909 159.998 132.817 132.15C193.043 104.302 174.183 74.8039 234.409 46.9557C294.635 19.1075 313.495 48.6056 373.739 20.7494C433.982 -7.1068 415.105 -36.597 475.331 -64.4452M-96.4266 505.839C-36.2005 477.991 -17.3407 507.489 42.8854 479.641C103.112 451.792 84.2517 422.294 144.46 394.454C204.669 366.614 223.546 396.104 283.772 368.256C343.998 340.408 325.139 310.909 385.365 283.061C445.591 255.213 464.451 284.711 524.694 256.855C584.938 228.999 566.06 199.509 626.286 171.66M7.37925 668.199C67.6053 640.351 86.4652 669.849 146.691 642.001C206.917 614.153 188.058 584.655 248.266 556.814C308.475 528.974 327.352 558.464 387.578 530.616C447.804 502.768 428.944 473.27 489.171 445.422C549.397 417.573 568.257 447.072 628.5 419.215C688.743 391.359 669.866 361.869 730.092 334.021M-171.904 387.785C-111.678 359.937 -92.8183 389.435 -32.5922 361.587C27.6339 333.739 8.77403 304.241 68.9828 276.4C129.192 248.56 148.069 278.05 208.295 250.202C268.521 222.354 249.661 192.856 309.887 165.008C370.113 137.159 388.973 166.658 449.216 138.801C509.46 110.945 490.583 81.455 550.809 53.6068M-20.949 623.891C39.2771 596.043 58.137 625.541 118.363 597.693C178.589 569.845 159.729 540.347 219.938 512.506C280.147 484.666 299.024 514.156 359.25 486.308C419.476 458.46 400.616 428.962 460.842 401.114C521.068 373.265 539.928 402.764 600.172 374.907C660.415 347.051 641.538 317.561 701.764 289.713M82.8569 786.251C143.083 758.403 161.926 787.874 222.152 760.026C282.378 732.178 263.535 702.706 323.744 674.866C383.953 647.026 402.813 676.489 463.039 648.641C523.265 620.793 504.422 591.322 564.648 563.474C624.874 535.625 643.717 565.097 703.96 537.24C764.204 509.384 745.344 479.921 805.57 452.073M-294.57 195.927C-234.344 168.079 -215.484 197.577 -155.258 169.729C-95.0318 141.881 -113.892 112.383 -53.6829 84.5425C6.5259 56.7023 25.4031 86.1925 85.6291 58.3443C145.855 30.4961 126.995 0.99793 187.221 -26.8503C247.448 -54.6985 266.307 -25.2003 326.551 -53.0565C386.794 -80.9127 367.917 -110.403 428.143 -138.251M-143.615 432.033C-83.3885 404.185 -64.4903 433.743 -4.2642 405.895C55.9619 378.047 37.0637 348.488 97.2724 320.648C157.481 292.808 176.397 322.358 236.623 294.51C296.849 266.662 277.951 237.104 338.177 209.255C398.403 181.407 417.301 210.965 477.544 183.109C537.788 155.253 518.872 125.703 579.098 97.8546M-219.092 313.98C-158.866 286.132 -140.006 315.63 -79.7804 287.782C-19.5543 259.934 -38.4141 230.435 21.7946 202.595C82.0034 174.755 100.881 204.245 161.107 176.397C221.333 148.549 202.473 119.051 262.699 91.2024C322.925 63.3542 341.785 92.8524 402.028 64.9962C462.272 37.14 443.395 7.64982 503.621 -20.1984M-68.1368 550.086C-7.91067 522.238 10.9875 551.796 71.2136 523.948C131.44 496.1 112.541 466.542 172.75 438.701C232.959 410.861 251.874 440.411 312.101 412.563C372.327 384.715 353.428 355.157 413.655 327.309C473.881 299.46 492.779 329.018 553.022 301.162C613.266 273.306 594.35 243.756 654.576 215.908M35.669 712.446C95.8951 684.598 114.755 714.096 174.981 686.248C235.207 658.4 216.347 628.901 276.556 601.061C336.765 573.221 355.642 602.711 415.868 574.863C476.094 547.015 457.234 517.517 517.46 489.668C577.686 461.82 596.546 491.318 656.79 463.462C717.033 435.606 698.156 406.116 758.382 378.268M-256.812 254.984C-196.586 227.136 -177.726 256.634 -117.5 228.786C-57.2738 200.937 -76.1336 171.439 -15.9249 143.599C44.2839 115.759 63.161 145.249 123.387 117.401C183.613 89.5526 164.753 60.0545 224.979 32.2063C285.206 4.35808 304.065 33.8562 364.309 6.00003C424.552 -21.8562 405.675 -51.3463 465.901 -79.1945M-105.857 491.089C-45.6305 463.241 -26.7707 492.739 33.4554 464.891C93.6815 437.043 74.8217 407.544 135.03 379.704C195.239 351.864 214.116 381.354 274.342 353.506C334.569 325.658 315.709 296.16 375.935 268.311C436.161 240.463 455.021 269.961 515.264 242.105C575.507 214.249 556.63 184.759 616.856 156.911M-2.08891 653.39C58.1372 625.542 77.0354 655.1 137.261 627.252C197.488 599.403 178.589 569.845 238.798 542.005C299.007 514.165 317.922 543.715 378.148 515.867C438.375 488.019 419.476 458.461 479.702 430.612C539.928 402.764 558.827 432.322 619.07 404.466C679.313 376.61 660.398 347.06 720.624 319.212M-181.334 373.037C-121.108 345.189 -102.248 374.687 -42.0222 346.839C18.2039 318.99 -0.655947 289.492 59.5528 261.652C119.762 233.812 138.639 263.302 198.865 235.454C259.091 207.606 240.231 178.108 300.457 150.259C360.683 122.411 379.543 151.909 439.786 124.053C500.03 96.1969 481.153 66.7067 541.379 38.8585M-30.3787 609.142C29.8474 581.294 48.7073 610.792 108.933 582.944C169.159 555.096 150.3 525.598 210.508 497.757C270.717 469.917 289.594 499.407 349.82 471.559C410.046 443.711 391.187 414.213 451.413 386.365C511.639 358.516 530.499 388.015 590.742 360.158C650.985 332.302 632.108 302.812 692.334 274.964M73.9672 771.491C134.193 743.643 153.036 773.115 213.262 745.266C273.488 717.418 254.646 687.947 314.854 660.107C375.063 632.266 393.923 661.73 454.149 633.882C514.375 606.033 495.532 576.562 555.759 548.714C615.985 520.866 634.827 550.337 695.071 522.481C755.314 494.624 736.454 465.161 796.68 437.313M-275.71 225.426C-215.484 197.577 -196.586 227.136 -136.36 199.287C-76.1339 171.439 -95.0321 141.881 -34.8233 114.041C25.3854 86.2006 44.301 115.751 104.527 87.9025C164.753 60.0543 145.855 30.4962 206.081 2.64802C266.307 -25.2002 285.205 4.35796 345.449 -23.4983C405.692 -51.3545 386.777 -80.9046 447.003 -108.753M-124.716 461.591C-64.4902 433.743 -45.6304 463.241 14.5957 435.393C74.8218 407.545 55.9619 378.047 116.171 350.206C176.379 322.366 195.257 351.856 255.483 324.008C315.709 296.16 296.849 266.662 357.075 238.814C417.301 210.965 436.161 240.464 496.404 212.607C556.648 184.751 537.771 155.261 597.997 127.413M-200.232 343.478C-140.006 315.63 -121.108 345.188 -60.8821 317.34C-0.656021 289.492 -19.5542 259.934 40.6545 232.094C100.863 204.253 119.779 233.804 180.005 205.955C240.231 178.107 221.333 148.549 281.559 120.701C341.785 92.8527 360.683 122.411 420.927 94.5546C481.17 66.6984 462.254 37.1482 522.481 9.30005M-49.2386 579.644C10.9875 551.796 29.8473 581.294 90.0734 553.446C150.3 525.597 131.44 496.099 191.648 468.259C251.857 440.419 270.734 469.909 330.96 442.061C391.187 414.213 372.327 384.714 432.553 356.866C492.779 329.018 511.639 358.516 571.882 330.66C632.125 302.804 613.248 273.314 673.474 245.465M54.529 741.944C114.755 714.096 133.653 743.654 193.879 715.806C254.105 687.958 235.207 658.4 295.416 630.559C355.625 602.719 374.54 632.269 434.766 604.421C494.992 576.573 476.094 547.015 536.32 519.167C596.546 491.318 615.445 520.877 675.688 493.02C735.931 465.164 717.016 435.614 777.242 407.766M-237.952 284.482C-177.726 256.634 -158.866 286.132 -98.6401 258.283C-38.414 230.435 -57.2739 200.937 2.93488 173.097C63.1436 145.257 82.0208 174.747 142.247 146.899C202.473 119.051 183.613 89.5523 243.839 61.7041C304.065 33.8559 322.925 63.3541 383.169 35.4979C443.412 7.64169 424.535 -21.8485 484.761 -49.6967M-86.9968 520.587C-26.7707 492.739 -7.91088 522.237 52.3152 494.389C112.541 466.541 93.6814 437.043 153.89 409.203C214.099 381.362 232.976 410.853 293.202 383.004C353.428 355.156 334.568 325.658 394.794 297.81C455.021 269.962 473.88 299.46 534.124 271.604C594.367 243.747 575.49 214.257 635.716 186.409M16.809 682.948C77.0351 655.1 95.8949 684.598 156.121 656.75C216.347 628.902 197.487 599.404 257.696 571.563C317.905 543.723 336.782 573.213 397.008 545.365C457.234 517.517 438.374 488.019 498.6 460.171C558.826 432.322 577.686 461.821 637.93 433.964C698.173 406.108 679.296 376.618 739.522 348.77M-162.474 402.535C-102.248 374.687 -83.3886 404.185 -23.1625 376.337C37.0636 348.488 18.2038 318.99 78.4125 291.15C138.621 263.31 157.498 292.8 217.725 264.952C277.951 237.104 259.091 207.605 319.317 179.757C379.543 151.909 398.403 181.407 458.646 153.551C518.89 125.695 500.012 96.2046 560.239 68.3564M-11.5189 638.641C48.7072 610.793 67.6054 640.351 127.831 612.503C188.058 584.655 169.159 555.096 229.368 527.256C289.577 499.416 308.492 528.966 368.718 501.118C428.945 473.27 410.046 443.712 470.272 415.863C530.498 388.015 549.397 417.573 609.64 389.717C669.884 361.861 650.968 332.311 711.194 304.463M92.287 801C152.513 773.152 171.356 802.623 231.582 774.775C291.808 746.927 272.965 717.455 333.174 689.615C393.383 661.775 412.243 691.238 472.469 663.39C532.695 635.542 513.852 606.071 574.078 578.222C634.304 550.374 653.147 579.846 713.391 551.989C773.634 524.133 754.774 494.67 815 466.822" stroke="#F5DBBF" stroke-miterlimit="10"/>
</svg>