<svg xmlns="http://www.w3.org/2000/svg" width="1920" height="37" viewBox="0 0 1920 37" fill="none">
  <path d="M1920 0H0V15.0508L4.95532 12.7439L18.1455 14.5357L28.6394 21.4937L42.0481 23.2333L54.0723 25.7417L66.8979 20.3216L78.7034 22.4643L90.9463 26.4584L102.533 20.5232L114.776 23.3378L126.654 24.0022L138.605 23.5916L148.881 27.7351L160.759 27.2274L171.18 31.7292L183.569 25.8462L194.573 28.504L207.69 28.5563L219.277 24.4651L228.531 18.0147L240.556 15.2524L253.017 12.7439L265.989 12.4379L279.033 13.819L292.296 15.4092L305.413 11.9227L317.437 16.223L331.065 14.3341L342.943 18.2238L354.749 21.9044L366.773 24.8757L378.943 27.8396L391.331 30.1465L405.469 26.7123L417.274 30.5048L428.57 33.4165L440.375 33.5732L451.598 36.5894L463.622 35.8727L475.208 37L487.087 33.9839L498.455 35.0067L510.115 36.2833L522.285 32.5504L536.058 30.4526L547.864 25.025L561.928 27.8396L574.171 19.7542L587.434 20.9338L599.604 22.8749L611.191 20.4709L623.215 23.4423L634.947 24.0545L646.607 22.7778L658.413 19.5004L670.437 16.8426L681.805 23.2333L694.048 19.7542L706.072 19.142L728.226 27.9964L741.197 23.4423H753.221L761.31 33.9316L773.771 32.4982L785.65 28.3547L796.29 29.7359L809.261 32.9088L818.37 25.4356L828.864 21.0831L842.418 21.8521L852.329 16.223L866.248 18.3731L875.722 11.2135L887.673 9.46651L900.28 10.6983L911.94 7.88378L924.474 9.82486L937.373 7.77926L949.98 6.80872L961.931 9.80993L966.887 7.51049L980.077 14.4163L990.57 21.3743L1003.98 23.1138L1016 25.6223L1028.83 20.2022L1040.63 22.3448L1052.88 26.339L1064.46 20.4038L1076.71 23.2183L1088.59 23.8828L1100.54 23.4722L1110.81 27.6156L1122.69 27.108L1133.11 31.6098L1145.5 25.7268L1156.5 28.3846L1169.62 28.4368L1181.21 24.3456L1190.46 17.8953L1202.49 15.133L1214.95 12.6245L1227.92 12.3184L1240.96 13.6996L1254.23 15.2898L1267.34 11.8033L1279.37 16.1035L1293 14.2147L1304.87 18.0969L1316.68 21.7849L1328.7 24.7563L1340.87 27.7201L1353.26 30.027L1367.4 26.5928L1379.21 30.3854L1390.5 33.297L1402.31 33.4538L1413.53 36.4699L1425.55 35.7532L1437.14 36.8806L1449.02 33.8644L1460.39 34.8872L1472.05 36.1638L1484.22 32.431L1497.99 30.3331L1509.79 24.9056L1523.86 27.7201L1536.1 19.6348L1549.37 20.8144L1561.54 22.7554L1573.12 20.3515L1585.15 23.3228L1596.88 23.935L1608.54 22.6584L1620.34 19.381L1632.37 16.7157L1643.74 23.1138L1655.98 19.6348L1668 19.0226L1690.16 27.8769L1703.13 23.3228H1715.15L1723.24 33.8121L1735.7 32.3787L1747.58 28.2353L1758.22 29.6164L1771.19 32.7893L1780.3 25.3162L1790.79 20.9637L1804.35 21.7326L1814.26 16.1035L1828.18 18.2536L1837.65 11.0866L1849.6 9.34705L1862.21 10.5789L1873.87 7.76433L1886.41 9.70541L1899.3 7.65981L1911.91 6.68927L1920 7.40597V0Z" fill="#FDF9F4"/>
</svg>